<svg width="400" height="117.35015772870662" viewBox="0, 0, 400,117.35015772870662"><g id="svgg"><path id="path0" d="M56.466 1.521 C 56.356 1.589,56.361 1.664,56.482 1.739 C 56.584 1.802,56.667 1.768,56.667 1.665 C 56.667 1.556,56.777 1.587,56.929 1.738 C 57.073 1.882,57.235 2.000,57.290 2.000 C 57.344 2.000,57.340 1.951,57.279 1.890 C 57.219 1.830,57.238 1.699,57.321 1.599 C 57.486 1.399,56.769 1.334,56.466 1.521 M59.333 1.968 C 59.333 2.146,59.446 2.386,59.583 2.500 C 59.793 2.674,59.833 2.648,59.833 2.344 C 59.833 2.116,59.904 2.024,60.022 2.097 C 60.136 2.167,60.180 2.122,60.134 1.982 C 60.007 1.598,59.333 1.587,59.333 1.968 M55.994 2.177 C 55.899 2.355,55.843 2.507,55.869 2.517 C 56.294 2.664,56.804 2.582,56.645 2.391 C 56.508 2.226,56.508 2.167,56.646 2.167 C 56.978 2.167,56.845 1.905,56.500 1.879 C 56.317 1.865,56.090 1.999,55.994 2.177 M53.251 4.335 C 53.307 4.426,53.227 4.500,53.073 4.500 C 52.857 4.500,52.835 4.552,52.978 4.724 C 53.080 4.847,53.114 4.997,53.054 5.057 C 52.910 5.201,53.331 5.177,53.738 5.017 C 54.034 4.902,54.036 4.883,53.769 4.780 C 53.609 4.719,53.521 4.601,53.572 4.519 C 53.623 4.436,53.549 4.324,53.407 4.269 C 53.259 4.213,53.193 4.241,53.251 4.335 M52.349 5.564 C 52.231 5.707,52.214 5.843,52.308 5.901 C 52.394 5.954,52.512 5.875,52.570 5.725 C 52.711 5.357,52.593 5.271,52.349 5.564 M52.623 5.982 C 52.564 6.208,52.618 6.283,52.812 6.245 C 52.961 6.216,53.149 6.186,53.229 6.179 C 53.401 6.164,53.017 5.667,52.832 5.667 C 52.763 5.667,52.668 5.809,52.623 5.982 M55.833 8.917 C 55.829 9.316,55.793 9.367,55.651 9.167 C 55.515 8.975,55.497 9.027,55.577 9.389 C 55.633 9.649,55.621 9.825,55.548 9.780 C 55.476 9.735,55.454 14.297,55.500 19.917 C 55.546 25.537,55.527 30.100,55.458 30.058 C 55.390 30.015,55.333 30.139,55.333 30.333 C 55.333 30.527,55.402 30.644,55.487 30.592 C 55.571 30.540,55.759 30.616,55.905 30.763 C 56.217 31.074,56.308 9.156,55.997 8.667 C 55.876 8.476,55.837 8.535,55.833 8.917 M66.155 8.930 C 66.029 9.083,66.074 9.168,66.325 9.247 C 66.513 9.307,66.668 9.482,66.669 9.636 C 66.671 9.850,66.705 9.865,66.811 9.698 C 67.180 9.114,66.583 8.415,66.155 8.930 M67.173 9.409 C 66.930 9.702,67.081 10.002,67.468 9.995 C 67.721 9.990,67.719 9.972,67.449 9.815 C 67.211 9.677,67.189 9.590,67.344 9.403 C 67.452 9.273,67.503 9.167,67.457 9.167 C 67.412 9.167,67.284 9.276,67.173 9.409 M48.731 9.573 C 48.680 9.705,48.718 9.949,48.814 10.115 C 48.919 10.295,48.992 10.329,48.995 10.198 C 48.998 10.079,49.064 10.020,49.143 10.068 C 49.221 10.117,49.250 9.971,49.206 9.745 C 49.119 9.290,48.874 9.201,48.731 9.573 M52.531 10.369 C 52.243 10.657,52.289 10.833,52.652 10.833 C 52.838 10.833,52.955 10.731,52.935 10.588 C 52.881 10.220,52.750 10.150,52.531 10.369 M50.948 11.486 C 50.791 11.680,50.796 11.703,50.969 11.599 C 51.124 11.505,51.173 11.557,51.136 11.775 C 51.098 11.996,51.170 12.068,51.392 12.031 C 51.599 11.995,51.659 12.044,51.574 12.181 C 51.494 12.311,51.518 12.342,51.641 12.266 C 51.747 12.201,51.833 11.997,51.833 11.814 C 51.833 11.630,51.758 11.527,51.667 11.583 C 51.575 11.640,51.500 11.612,51.500 11.522 C 51.500 11.432,51.631 11.323,51.792 11.281 C 51.952 11.238,51.872 11.212,51.615 11.222 C 51.357 11.233,51.057 11.351,50.948 11.486 M44.333 13.427 C 44.333 13.569,44.258 13.640,44.167 13.583 C 44.075 13.527,44.000 13.587,44.000 13.717 C 44.000 13.926,44.234 13.963,44.876 13.855 C 45.034 13.828,44.634 13.167,44.460 13.167 C 44.390 13.167,44.333 13.284,44.333 13.427 M72.718 15.069 C 72.735 15.169,72.642 15.227,72.511 15.198 C 72.380 15.170,72.567 15.438,72.928 15.796 C 73.657 16.518,73.651 16.516,73.744 16.032 C 73.791 15.785,73.742 15.712,73.572 15.777 C 73.426 15.833,73.333 15.765,73.333 15.601 C 73.333 15.454,73.250 15.333,73.149 15.333 C 73.047 15.333,73.003 15.233,73.050 15.111 C 73.097 14.989,73.034 14.889,72.910 14.889 C 72.786 14.889,72.700 14.970,72.718 15.069 M46.125 17.201 C 45.773 17.562,45.753 17.687,46.066 17.567 C 46.195 17.518,46.356 17.569,46.426 17.681 C 46.511 17.820,46.482 17.842,46.333 17.750 C 46.188 17.660,46.155 17.680,46.236 17.810 C 46.382 18.047,46.667 17.900,46.667 17.587 C 46.667 17.463,46.760 17.323,46.875 17.277 C 47.005 17.225,46.979 17.188,46.806 17.180 C 46.653 17.173,46.503 17.107,46.472 17.035 C 46.442 16.962,46.285 17.037,46.125 17.201 M75.754 17.653 C 75.662 17.943,75.903 18.833,76.074 18.833 C 76.119 18.833,76.116 18.728,76.067 18.600 C 76.018 18.472,76.069 18.310,76.181 18.241 C 76.307 18.163,76.342 18.184,76.273 18.296 C 76.212 18.396,76.243 18.527,76.342 18.589 C 76.441 18.650,76.481 18.809,76.430 18.942 C 76.379 19.076,76.410 19.139,76.501 19.083 C 76.590 19.027,76.852 19.170,77.082 19.400 C 77.382 19.700,77.500 19.747,77.500 19.566 C 77.500 19.427,77.575 19.360,77.667 19.417 C 77.758 19.473,77.833 19.390,77.833 19.232 C 77.833 19.074,77.787 18.991,77.730 19.048 C 77.599 19.179,77.167 18.754,77.167 18.494 C 77.167 18.386,77.063 18.337,76.937 18.386 C 76.796 18.440,76.716 18.367,76.729 18.195 C 76.741 18.031,76.636 17.925,76.472 17.938 C 76.313 17.950,76.227 17.869,76.273 17.751 C 76.317 17.637,76.240 17.500,76.101 17.447 C 75.948 17.388,75.813 17.468,75.754 17.653 M43.769 19.090 C 43.489 19.294,43.501 19.325,43.943 19.554 C 44.399 19.790,44.417 19.784,44.417 19.401 C 44.417 18.916,44.170 18.797,43.769 19.090 M42.434 20.147 C 42.155 20.456,42.150 20.504,42.388 20.596 C 42.799 20.753,42.948 20.622,42.843 20.192 L 42.747 19.802 42.434 20.147 M78.800 21.423 C 78.629 21.593,78.842 22.000,79.101 22.000 C 79.229 22.000,79.333 21.927,79.333 21.839 C 79.333 21.750,79.465 21.722,79.625 21.778 C 79.861 21.859,79.853 21.828,79.584 21.620 C 79.371 21.454,79.214 21.423,79.146 21.533 C 79.077 21.645,79.018 21.636,78.975 21.508 C 78.939 21.401,78.860 21.362,78.800 21.423 M35.535 22.113 C 35.365 22.181,35.362 22.251,35.521 22.442 C 35.632 22.576,35.654 22.662,35.570 22.634 C 35.436 22.590,35.265 22.788,35.375 22.861 C 35.526 22.960,36.117 22.398,36.049 22.220 C 35.960 21.988,35.884 21.972,35.535 22.113 M79.583 22.167 C 79.640 22.258,79.551 22.338,79.385 22.344 C 79.148 22.352,79.166 22.387,79.469 22.509 C 79.681 22.594,79.808 22.739,79.751 22.832 C 79.577 23.114,79.944 23.019,80.188 22.719 C 80.388 22.473,80.380 22.451,80.125 22.547 C 79.965 22.607,79.833 22.584,79.833 22.495 C 79.833 22.406,79.965 22.328,80.125 22.322 C 80.374 22.312,80.368 22.289,80.083 22.167 C 79.625 21.970,79.461 21.970,79.583 22.167 M40.167 22.660 C 40.167 22.755,40.110 22.824,40.042 22.814 C 39.714 22.762,39.644 22.855,39.836 23.087 C 40.013 23.299,40.002 23.324,39.774 23.236 C 39.623 23.178,39.500 23.169,39.500 23.214 C 39.500 23.454,40.015 23.443,40.299 23.197 C 40.573 22.959,40.588 22.881,40.395 22.701 C 40.263 22.577,40.167 22.560,40.167 22.660 M75.000 22.667 C 74.986 22.804,74.949 23.052,74.917 23.218 C 74.868 23.475,74.899 23.487,75.129 23.301 C 75.328 23.139,75.365 23.137,75.272 23.292 C 75.096 23.585,75.306 23.551,75.622 23.235 C 75.887 22.970,75.626 22.569,75.314 22.762 C 75.249 22.802,75.157 22.741,75.111 22.626 C 75.052 22.479,75.019 22.491,75.000 22.667 M76.074 23.318 C 76.124 23.399,76.053 23.508,75.916 23.561 C 75.779 23.613,75.667 23.746,75.667 23.856 C 75.667 23.966,75.716 24.007,75.775 23.947 C 75.835 23.887,75.990 23.969,76.121 24.128 C 76.251 24.287,76.312 24.324,76.255 24.212 C 76.198 24.099,76.228 23.863,76.323 23.687 C 76.454 23.441,76.434 23.344,76.238 23.269 C 76.098 23.215,76.024 23.237,76.074 23.318 M81.908 24.693 C 81.781 25.094,81.944 25.333,82.343 25.333 C 82.694 25.333,82.800 25.656,82.458 25.683 C 82.344 25.692,82.438 25.753,82.667 25.819 C 82.967 25.904,83.111 25.866,83.182 25.681 C 83.286 25.411,82.982 25.000,82.679 25.000 C 82.580 25.000,82.509 24.944,82.520 24.875 C 82.605 24.334,82.072 24.176,81.908 24.693 M82.374 24.777 C 82.259 24.824,82.207 24.930,82.259 25.014 C 82.311 25.098,82.274 25.167,82.177 25.167 C 82.079 25.167,82.000 25.054,82.000 24.917 C 82.000 24.779,82.131 24.673,82.292 24.680 C 82.468 24.688,82.500 24.726,82.374 24.777 M78.437 26.033 C 78.483 26.107,78.388 26.167,78.228 26.167 C 77.964 26.167,77.967 26.189,78.258 26.402 C 78.435 26.531,78.648 26.595,78.732 26.543 C 78.816 26.491,78.835 26.529,78.775 26.627 C 78.714 26.725,78.759 26.843,78.874 26.889 C 79.040 26.956,79.041 26.976,78.875 26.987 C 78.526 27.009,78.643 27.333,79.000 27.333 C 79.222 27.333,79.333 27.222,79.333 27.000 C 79.333 26.817,79.269 26.667,79.190 26.667 C 79.111 26.667,79.065 26.494,79.088 26.283 C 79.121 25.981,79.048 25.900,78.742 25.900 C 78.529 25.900,78.392 25.960,78.437 26.033 M30.713 26.489 C 30.701 26.724,30.727 26.831,30.770 26.726 C 30.814 26.621,30.985 26.571,31.152 26.614 C 31.350 26.666,31.482 26.585,31.537 26.377 C 31.603 26.125,31.530 26.061,31.177 26.061 C 30.818 26.061,30.730 26.142,30.713 26.489 M35.512 27.208 C 35.505 27.460,35.500 27.704,35.500 27.750 C 35.500 27.796,35.555 27.815,35.621 27.792 C 35.795 27.732,35.808 27.468,35.656 27.083 C 35.541 26.793,35.522 26.810,35.512 27.208 M45.000 27.165 C 45.000 27.268,44.925 27.307,44.833 27.250 C 44.742 27.193,44.667 27.226,44.667 27.323 C 44.667 27.421,44.750 27.500,44.851 27.500 C 44.953 27.500,44.994 27.609,44.943 27.741 C 44.873 27.925,44.932 27.953,45.188 27.858 C 45.587 27.711,45.601 27.577,45.256 27.232 C 45.105 27.082,45.000 27.054,45.000 27.165 M46.078 27.658 C 46.128 27.739,46.075 27.843,45.959 27.889 C 45.833 27.940,45.866 27.979,46.042 27.987 C 46.202 27.994,46.334 28.094,46.336 28.208 C 46.338 28.364,46.374 28.361,46.480 28.194 C 46.673 27.888,46.741 27.882,47.058 28.145 C 47.297 28.344,47.335 28.333,47.344 28.062 C 47.352 27.819,47.391 27.842,47.521 28.167 C 47.697 28.605,48.114 28.257,47.961 27.800 C 47.868 27.519,47.370 27.498,47.265 27.770 C 47.187 27.975,47.092 27.973,46.581 27.760 C 46.255 27.623,46.028 27.578,46.078 27.658 M38.667 27.833 C 38.866 27.962,38.832 27.998,38.500 28.008 C 38.085 28.021,38.085 28.022,38.459 28.172 C 39.014 28.395,39.439 28.200,39.047 27.902 C 38.883 27.779,38.675 27.676,38.583 27.675 C 38.492 27.673,38.529 27.744,38.667 27.833 M82.487 29.782 C 82.479 29.957,82.438 29.996,82.390 29.875 C 82.343 29.760,82.195 29.667,82.060 29.667 C 81.924 29.667,81.856 29.735,81.908 29.819 C 81.960 29.903,81.908 30.010,81.793 30.056 C 81.666 30.107,81.699 30.146,81.875 30.154 C 82.035 30.161,82.167 30.271,82.167 30.397 C 82.167 30.830,83.021 31.258,83.253 30.941 C 83.361 30.793,83.498 30.721,83.558 30.780 C 83.618 30.840,83.667 30.820,83.667 30.735 C 83.667 30.651,83.437 30.480,83.156 30.355 C 82.843 30.217,82.679 30.042,82.732 29.903 C 82.780 29.779,82.747 29.633,82.659 29.579 C 82.572 29.525,82.494 29.616,82.487 29.782 M52.038 30.363 C 52.063 30.485,51.954 30.573,51.792 30.560 C 51.631 30.547,51.500 30.604,51.500 30.685 C 51.500 30.767,51.644 30.833,51.819 30.833 C 51.995 30.833,52.177 30.927,52.223 31.042 C 52.288 31.202,52.310 31.200,52.320 31.032 C 52.327 30.912,52.416 30.865,52.517 30.927 C 52.649 31.009,52.649 30.945,52.516 30.696 C 52.292 30.279,51.974 30.057,52.038 30.363 M44.167 31.133 C 44.167 31.298,44.073 31.533,43.958 31.654 C 43.787 31.835,43.812 31.842,44.103 31.693 C 44.297 31.593,44.515 31.565,44.588 31.631 C 44.660 31.696,44.669 31.608,44.606 31.435 C 44.511 31.172,44.533 31.153,44.737 31.322 C 44.939 31.490,44.977 31.465,44.955 31.179 C 44.921 30.726,44.167 30.682,44.167 31.133 M55.440 31.583 C 55.387 31.721,55.225 31.833,55.079 31.833 C 54.921 31.833,54.862 31.756,54.933 31.641 C 55.006 31.522,54.978 31.494,54.859 31.567 C 54.520 31.777,54.631 32.215,55.000 32.118 C 55.183 32.070,55.367 32.087,55.409 32.155 C 55.504 32.308,56.068 32.278,56.125 32.117 C 56.270 31.708,56.157 31.468,55.913 31.670 C 55.701 31.846,55.676 31.836,55.764 31.607 C 55.822 31.456,55.794 31.333,55.702 31.333 C 55.611 31.333,55.492 31.446,55.440 31.583 M25.072 31.852 C 25.014 31.945,25.022 32.073,25.089 32.136 C 25.157 32.199,25.247 32.152,25.290 32.033 C 25.353 31.855,25.402 31.855,25.559 32.035 C 25.664 32.155,25.732 32.223,25.711 32.185 C 25.689 32.147,25.784 32.034,25.921 31.933 C 26.125 31.784,26.079 31.744,25.674 31.715 C 25.401 31.696,25.130 31.758,25.072 31.852 M24.784 32.779 C 24.868 32.999,24.823 33.034,24.571 32.945 C 24.268 32.839,24.268 32.847,24.583 33.091 C 24.884 33.325,24.922 33.325,24.971 33.092 C 25.000 32.950,25.113 32.832,25.221 32.831 C 25.335 32.829,25.313 32.761,25.167 32.667 C 24.796 32.427,24.664 32.466,24.784 32.779 M49.951 33.059 C 50.007 33.318,49.985 33.355,49.871 33.194 C 49.742 33.012,49.696 33.017,49.617 33.222 C 49.564 33.360,49.629 33.514,49.761 33.564 C 49.892 33.615,50.000 33.767,50.000 33.902 C 50.000 34.037,50.077 34.194,50.171 34.253 C 50.265 34.311,50.321 34.259,50.296 34.137 C 50.271 34.016,50.330 33.931,50.427 33.948 C 50.629 33.984,50.651 33.095,50.454 32.898 C 50.166 32.611,49.874 32.705,49.951 33.059 M61.804 33.952 C 61.165 34.049,60.988 34.355,61.364 34.712 C 61.639 34.974,61.686 34.978,61.774 34.747 C 61.864 34.513,61.908 34.516,62.187 34.769 C 62.486 35.039,62.500 35.031,62.500 34.599 C 62.500 34.340,62.429 34.191,62.333 34.250 C 62.242 34.307,62.167 34.280,62.167 34.190 C 62.167 34.101,62.260 33.990,62.375 33.944 C 62.609 33.849,62.458 33.851,61.804 33.952 M54.959 35.281 C 54.602 35.375,54.861 36.000,55.256 36.000 C 55.549 36.000,55.578 35.734,55.303 35.564 C 55.167 35.481,55.206 35.403,55.428 35.316 C 55.780 35.178,55.448 35.154,54.959 35.281 M20.813 36.008 C 20.722 36.449,21.349 36.712,21.585 36.331 C 21.641 36.241,21.537 36.167,21.355 36.167 C 21.173 36.167,20.996 36.035,20.962 35.875 C 20.917 35.663,20.876 35.699,20.813 36.008 M55.566 36.076 C 55.282 36.222,55.243 36.333,55.360 36.651 C 55.440 36.867,55.486 41.085,55.461 46.024 C 55.423 53.639,55.452 54.990,55.649 54.915 C 55.833 54.844,55.839 54.875,55.682 55.065 C 55.545 55.230,55.538 55.337,55.661 55.413 C 55.759 55.474,55.796 55.592,55.744 55.677 C 55.553 55.986,55.892 56.326,56.132 56.066 C 56.307 55.876,56.307 55.832,56.132 55.828 C 56.003 55.825,56.046 55.725,56.240 55.578 C 56.418 55.443,56.474 55.333,56.365 55.333 C 56.073 55.333,56.078 36.224,56.371 36.126 C 56.483 36.089,56.427 36.022,56.246 35.977 C 56.065 35.932,55.759 35.977,55.566 36.076 M88.754 35.993 C 88.700 36.080,88.546 36.110,88.411 36.058 C 88.157 35.960,88.043 36.581,88.292 36.714 C 88.436 36.791,88.897 36.316,88.958 36.028 C 89.009 35.793,88.891 35.773,88.754 35.993 M88.875 36.444 C 88.531 36.582,88.640 36.879,89.000 36.785 C 89.183 36.737,89.333 36.778,89.333 36.877 C 89.333 36.975,89.373 37.016,89.421 36.968 C 89.531 36.858,89.335 36.329,89.191 36.346 C 89.132 36.354,88.990 36.397,88.875 36.444 M58.567 36.859 C 58.494 36.978,58.522 37.006,58.641 36.933 C 58.757 36.861,58.833 36.924,58.833 37.091 C 58.833 37.276,58.922 37.335,59.097 37.268 C 59.242 37.212,59.401 37.167,59.451 37.167 C 59.500 37.167,59.447 37.054,59.333 36.917 C 59.086 36.619,58.732 36.592,58.567 36.859 M68.500 37.167 C 68.500 37.258,68.383 37.333,68.240 37.333 C 68.092 37.333,68.030 37.413,68.095 37.519 C 68.158 37.621,68.106 37.769,67.980 37.849 C 67.798 37.965,67.796 37.995,67.969 37.997 C 68.356 38.002,68.847 37.656,68.727 37.463 C 68.652 37.342,68.709 37.314,68.889 37.383 C 69.070 37.453,69.167 37.405,69.167 37.245 C 69.167 37.110,69.017 37.000,68.833 37.000 C 68.650 37.000,68.500 37.075,68.500 37.167 M89.173 37.258 C 89.282 37.389,89.431 37.459,89.505 37.414 C 89.578 37.368,89.704 37.529,89.785 37.771 C 89.924 38.188,89.947 38.196,90.219 37.924 C 90.491 37.652,90.486 37.621,90.128 37.350 C 89.639 36.979,88.881 36.906,89.173 37.258 M70.833 37.696 C 70.587 37.800,70.502 37.903,70.625 37.950 C 70.740 37.993,70.833 38.207,70.833 38.427 C 70.833 38.799,70.865 38.813,71.292 38.631 C 71.967 38.344,72.053 38.231,71.856 37.891 C 71.757 37.722,71.675 37.661,71.672 37.756 C 71.669 37.851,71.521 37.929,71.343 37.929 C 71.097 37.929,71.062 37.876,71.196 37.714 C 71.403 37.465,71.386 37.464,70.833 37.696 M19.687 37.880 C 19.386 38.180,19.448 38.889,19.764 38.768 C 19.909 38.712,20.077 38.666,20.139 38.664 C 20.200 38.663,20.137 38.589,20.000 38.500 C 19.786 38.362,19.792 38.338,20.042 38.336 C 20.387 38.333,20.434 37.908,20.104 37.781 C 19.977 37.732,19.790 37.777,19.687 37.880 M62.118 38.001 C 62.057 38.236,61.940 38.305,61.724 38.235 C 61.478 38.155,61.465 38.169,61.659 38.307 C 61.792 38.401,61.954 38.445,62.019 38.405 C 62.085 38.364,62.176 38.425,62.223 38.541 C 62.269 38.656,62.313 38.506,62.320 38.208 C 62.335 37.595,62.248 37.505,62.118 38.001 M69.921 37.993 C 69.867 38.080,69.718 38.112,69.591 38.063 C 69.458 38.012,69.373 38.069,69.392 38.195 C 69.451 38.599,70.111 38.489,70.111 38.076 C 70.111 37.794,70.059 37.770,69.921 37.993 M96.583 38.502 C 96.524 38.687,96.395 38.788,96.296 38.727 C 96.191 38.662,96.163 38.693,96.230 38.800 C 96.293 38.902,96.455 38.943,96.591 38.891 C 96.765 38.824,96.807 38.874,96.734 39.065 C 96.605 39.402,96.734 39.408,97.061 39.082 C 97.217 38.926,97.352 38.895,97.416 38.999 C 97.473 39.091,97.436 39.167,97.333 39.167 C 97.231 39.167,97.201 39.253,97.266 39.359 C 97.340 39.478,97.312 39.506,97.192 39.433 C 97.079 39.362,97.000 39.419,97.000 39.569 C 97.000 39.775,97.084 39.793,97.431 39.661 C 97.668 39.571,97.949 39.550,98.056 39.614 C 98.163 39.678,98.147 39.604,98.021 39.449 C 97.895 39.294,97.858 39.164,97.938 39.162 C 98.018 39.159,97.952 39.080,97.792 38.987 C 97.631 38.893,97.499 38.689,97.497 38.533 C 97.495 38.316,97.462 38.302,97.355 38.471 C 97.241 38.650,97.166 38.642,96.952 38.428 C 96.713 38.189,96.680 38.196,96.583 38.502 M71.891 38.541 C 71.642 38.945,71.714 39.290,72.030 39.207 C 72.197 39.164,72.333 39.062,72.333 38.981 C 72.333 38.900,72.390 38.833,72.458 38.833 C 72.527 38.833,72.583 39.021,72.583 39.250 C 72.583 39.479,72.527 39.667,72.458 39.667 C 72.390 39.667,72.333 39.742,72.333 39.833 C 72.333 40.073,72.790 40.039,72.890 39.792 C 72.956 39.629,73.009 39.632,73.131 39.806 C 73.253 39.980,73.306 39.955,73.375 39.693 C 73.441 39.441,73.398 39.383,73.204 39.457 C 73.034 39.523,72.987 39.490,73.066 39.362 C 73.136 39.249,73.089 39.167,72.955 39.167 C 72.826 39.167,72.729 39.010,72.737 38.811 C 72.752 38.407,72.102 38.200,71.891 38.541 M23.139 39.129 C 22.987 39.160,22.822 39.289,22.774 39.415 C 22.691 39.630,23.245 39.644,23.457 39.432 C 23.616 39.273,23.407 39.073,23.139 39.129 M64.417 39.167 C 64.473 39.258,64.421 39.336,64.302 39.339 C 64.156 39.342,64.179 39.417,64.372 39.563 C 64.531 39.684,64.625 39.819,64.581 39.864 C 64.536 39.908,64.602 39.944,64.726 39.944 C 64.984 39.944,65.002 39.313,64.750 39.128 C 64.507 38.949,64.297 38.973,64.417 39.167 M17.964 39.850 C 17.671 40.014,17.732 40.500,18.046 40.500 C 18.143 40.500,18.173 40.451,18.113 40.390 C 18.052 40.330,18.088 40.178,18.192 40.053 C 18.439 39.755,18.321 39.650,17.964 39.850 M22.250 40.000 C 22.307 40.092,22.261 40.167,22.149 40.167 C 21.881 40.167,22.105 40.388,22.419 40.434 C 22.609 40.462,22.625 40.400,22.492 40.152 C 22.398 39.977,22.282 39.833,22.234 39.833 C 22.186 39.833,22.193 39.908,22.250 40.000 M69.566 41.252 C 69.629 41.679,69.942 41.891,70.059 41.586 C 70.120 41.429,70.094 41.359,69.998 41.418 C 69.907 41.474,69.833 41.403,69.833 41.260 C 69.833 41.117,69.765 41.000,69.681 41.000 C 69.598 41.000,69.546 41.113,69.566 41.252 M78.889 41.750 C 78.889 41.887,78.926 41.963,78.971 41.918 C 79.016 41.873,79.155 41.921,79.280 42.025 C 79.609 42.298,79.755 42.065,79.448 41.758 C 79.122 41.431,78.889 41.428,78.889 41.750 M20.571 42.301 C 20.380 42.460,20.259 42.693,20.301 42.818 C 20.351 42.970,20.304 43.002,20.163 42.914 C 20.013 42.822,19.989 42.848,20.083 42.999 C 20.190 43.173,20.258 43.162,20.414 42.949 C 20.593 42.704,20.636 42.705,20.921 42.966 C 21.131 43.158,21.178 43.169,21.065 43.000 C 20.973 42.862,20.910 42.581,20.926 42.375 C 20.942 42.169,20.946 42.002,20.936 42.006 C 20.925 42.009,20.761 42.141,20.571 42.301 M81.432 42.269 C 81.307 42.595,81.446 42.833,81.760 42.833 C 82.065 42.833,82.068 42.545,81.766 42.242 C 81.566 42.042,81.518 42.046,81.432 42.269 M72.694 42.414 C 72.454 42.546,72.374 42.672,72.485 42.741 C 72.585 42.803,72.667 42.802,72.667 42.739 C 72.667 42.677,72.772 42.714,72.902 42.821 C 73.082 42.970,73.166 42.969,73.261 42.816 C 73.339 42.689,73.314 42.659,73.192 42.734 C 73.077 42.805,73.000 42.745,73.000 42.583 C 73.000 42.422,73.077 42.361,73.192 42.433 C 73.312 42.506,73.340 42.478,73.266 42.359 C 73.201 42.253,73.133 42.174,73.115 42.183 C 73.098 42.192,72.908 42.296,72.694 42.414 M80.236 42.394 C 80.180 42.539,80.254 42.778,80.400 42.924 C 80.547 43.071,80.672 43.166,80.679 43.137 C 80.837 42.475,80.452 41.830,80.236 42.394 M14.915 42.836 C 14.857 42.929,14.739 42.961,14.651 42.907 C 14.563 42.853,14.512 42.902,14.538 43.016 C 14.563 43.130,14.396 43.322,14.167 43.442 C 13.929 43.567,13.857 43.664,14.000 43.667 C 14.211 43.671,14.214 43.695,14.015 43.821 C 13.816 43.947,13.822 44.013,14.056 44.247 C 14.270 44.461,14.333 44.471,14.333 44.293 C 14.333 44.166,14.602 43.957,14.931 43.828 C 15.260 43.699,15.447 43.566,15.347 43.532 C 15.247 43.499,15.208 43.401,15.261 43.315 C 15.315 43.229,15.296 43.169,15.221 43.182 C 14.885 43.241,14.808 43.148,15.000 42.917 C 15.114 42.779,15.165 42.667,15.114 42.667 C 15.062 42.667,14.973 42.743,14.915 42.836 M18.836 42.968 C 18.834 43.206,18.903 43.310,19.017 43.240 C 19.150 43.158,19.149 43.221,19.016 43.470 C 18.828 43.821,19.047 44.162,19.250 43.833 C 19.465 43.485,19.518 42.802,19.320 42.925 C 19.215 42.990,19.064 42.939,18.984 42.813 C 18.877 42.644,18.838 42.684,18.836 42.968 M18.187 43.546 C 17.961 43.772,17.937 44.058,18.155 43.924 C 18.241 43.871,18.416 43.979,18.545 44.163 C 18.821 44.557,19.059 44.422,18.833 44.000 C 18.748 43.841,18.716 43.672,18.763 43.626 C 18.810 43.579,18.741 43.500,18.611 43.450 C 18.481 43.400,18.290 43.444,18.187 43.546 M96.567 43.526 C 96.501 43.633,96.521 43.673,96.613 43.616 C 96.704 43.560,96.778 43.617,96.778 43.741 C 96.778 43.866,96.678 43.930,96.556 43.883 C 96.433 43.836,96.333 43.893,96.333 44.010 C 96.333 44.127,96.381 44.175,96.439 44.117 C 96.635 43.921,97.196 44.349,97.094 44.616 C 97.019 44.810,97.078 44.852,97.331 44.786 C 97.516 44.737,97.628 44.761,97.581 44.837 C 97.533 44.914,97.590 45.032,97.706 45.099 C 97.822 45.165,97.861 45.159,97.793 45.084 C 97.725 45.009,97.751 44.849,97.851 44.728 C 98.075 44.459,97.702 44.016,97.350 44.133 C 97.210 44.180,97.166 44.136,97.237 44.020 C 97.302 43.916,97.243 43.719,97.106 43.582 C 96.807 43.283,96.723 43.274,96.567 43.526 M13.076 44.345 C 13.023 44.431,13.096 44.547,13.239 44.602 C 13.383 44.657,13.500 44.823,13.500 44.972 C 13.500 45.173,13.567 45.145,13.767 44.860 C 13.914 44.650,13.999 44.443,13.956 44.401 C 13.790 44.235,13.169 44.195,13.076 44.345 M102.333 44.677 C 102.333 44.774,102.258 44.807,102.167 44.750 C 102.075 44.693,102.000 44.726,102.000 44.823 C 102.000 44.921,102.075 45.000,102.167 45.000 C 102.258 45.000,102.315 45.090,102.292 45.201 C 102.269 45.311,102.344 45.414,102.458 45.430 C 102.573 45.446,102.760 45.473,102.875 45.491 C 102.990 45.509,102.933 45.588,102.750 45.667 L 102.417 45.810 102.750 45.833 L 103.083 45.857 102.750 46.000 C 102.455 46.127,102.469 46.145,102.875 46.155 C 103.191 46.163,103.337 46.258,103.346 46.458 C 103.355 46.656,103.388 46.678,103.449 46.527 C 103.510 46.372,103.597 46.423,103.732 46.693 C 103.839 46.908,104.037 47.083,104.172 47.083 C 104.306 47.083,104.472 47.158,104.539 47.250 C 104.606 47.342,104.663 47.248,104.664 47.042 C 104.667 46.640,104.416 46.532,104.277 46.875 C 104.213 47.032,104.149 47.021,104.019 46.833 C 103.888 46.645,103.916 46.555,104.131 46.470 C 104.291 46.407,104.321 46.352,104.200 46.345 C 103.823 46.325,102.819 45.231,102.925 44.955 C 102.979 44.815,102.941 44.650,102.841 44.588 C 102.740 44.526,102.679 44.565,102.704 44.675 C 102.729 44.785,102.656 44.909,102.542 44.951 C 102.408 45.000,102.369 44.933,102.434 44.764 C 102.490 44.619,102.490 44.500,102.434 44.500 C 102.379 44.500,102.333 44.579,102.333 44.677 M85.980 44.783 C 85.969 44.857,85.969 44.973,85.980 45.042 C 85.991 45.110,85.883 45.167,85.740 45.167 C 85.278 45.167,85.625 45.426,86.139 45.465 C 86.516 45.494,86.628 45.437,86.598 45.233 C 86.556 44.948,86.014 44.554,85.980 44.783 M98.000 44.986 C 98.000 45.071,97.956 45.277,97.903 45.445 C 97.814 45.724,97.829 45.723,98.070 45.426 C 98.215 45.249,98.333 45.192,98.333 45.301 C 98.333 45.411,98.411 45.500,98.506 45.500 C 98.623 45.500,98.621 45.393,98.500 45.167 C 98.318 44.826,98.000 44.711,98.000 44.986 M78.279 45.380 C 78.332 45.466,78.273 45.603,78.146 45.683 C 77.966 45.797,77.964 45.829,78.135 45.831 C 78.255 45.832,78.311 45.902,78.259 45.985 C 78.181 46.112,78.517 46.116,78.833 45.993 C 78.879 45.975,78.970 45.969,79.036 45.978 C 79.101 45.988,79.112 45.884,79.060 45.748 C 79.007 45.612,78.855 45.500,78.722 45.500 C 78.589 45.500,78.519 45.438,78.566 45.361 C 78.613 45.285,78.546 45.222,78.417 45.222 C 78.287 45.222,78.225 45.293,78.279 45.380 M98.708 45.593 C 98.461 45.862,98.427 46.398,98.667 46.250 C 98.758 46.193,98.834 46.208,98.835 46.282 C 98.835 46.356,99.023 46.503,99.251 46.609 C 99.619 46.780,99.667 46.764,99.667 46.474 C 99.667 46.254,99.570 46.162,99.375 46.194 C 98.902 46.271,98.612 46.016,98.849 45.731 C 99.107 45.421,98.981 45.297,98.708 45.593 M10.167 47.182 C 10.167 47.265,10.260 47.336,10.375 47.338 C 10.491 47.341,10.454 47.419,10.292 47.513 C 9.920 47.730,9.909 48.024,10.277 47.883 C 10.471 47.809,10.516 47.839,10.427 47.984 C 10.328 48.143,10.379 48.141,10.643 47.976 C 10.860 47.841,10.920 47.720,10.805 47.649 C 10.706 47.588,10.670 47.462,10.727 47.371 C 10.783 47.279,10.680 47.166,10.498 47.118 C 10.316 47.070,10.167 47.099,10.167 47.182 M83.793 47.417 C 83.668 48.068,83.836 48.629,84.183 48.719 C 84.481 48.797,84.591 48.634,84.500 48.250 C 84.462 48.087,84.397 47.625,84.355 47.208 C 84.316 46.829,83.874 46.993,83.793 47.417 M93.253 47.200 C 93.189 47.356,93.193 47.574,93.261 47.684 C 93.335 47.804,93.315 47.841,93.210 47.777 C 93.114 47.717,92.991 47.782,92.938 47.921 C 92.860 48.126,92.903 48.141,93.161 48.003 C 93.591 47.773,93.648 47.644,93.497 47.250 C 93.382 46.951,93.357 46.946,93.253 47.200 M14.833 47.493 C 14.833 47.575,14.702 47.677,14.542 47.718 C 14.358 47.766,14.416 47.802,14.698 47.814 C 15.205 47.836,15.462 47.585,15.082 47.439 C 14.945 47.387,14.833 47.411,14.833 47.493 M100.339 48.266 C 100.416 48.467,100.434 48.678,100.378 48.733 C 100.323 48.788,100.328 48.833,100.389 48.833 C 100.610 48.833,101.169 48.167,100.958 48.155 C 100.844 48.149,100.900 48.077,101.083 47.996 C 101.347 47.879,101.289 47.854,100.808 47.874 C 100.254 47.897,100.212 47.932,100.339 48.266 M14.094 48.263 C 13.825 48.532,13.895 48.918,14.181 48.741 C 14.268 48.688,14.298 48.578,14.249 48.499 C 14.200 48.419,14.292 48.276,14.455 48.182 C 14.617 48.087,14.662 48.008,14.554 48.005 C 14.446 48.002,14.239 48.119,14.094 48.263 M95.833 48.484 C 95.833 48.567,95.692 48.598,95.519 48.553 C 95.346 48.508,95.153 48.554,95.090 48.656 C 95.025 48.761,95.071 48.822,95.196 48.796 C 95.320 48.770,95.418 48.895,95.419 49.083 C 95.423 49.707,96.648 49.212,96.659 48.583 C 96.660 48.492,96.589 48.529,96.500 48.667 C 96.362 48.880,96.338 48.874,96.336 48.625 C 96.334 48.465,96.221 48.333,96.083 48.333 C 95.946 48.333,95.833 48.401,95.833 48.484 M8.283 48.617 C 8.029 48.682,8.016 48.736,8.199 48.963 C 8.361 49.162,8.364 49.199,8.208 49.105 C 8.089 49.034,8.000 49.064,8.000 49.175 C 8.000 49.282,8.103 49.329,8.230 49.281 C 8.356 49.232,8.544 49.277,8.646 49.380 C 8.785 49.518,8.833 49.514,8.833 49.367 C 8.833 49.257,8.765 49.167,8.682 49.167 C 8.599 49.167,8.570 49.017,8.618 48.833 C 8.666 48.650,8.678 48.509,8.644 48.519 C 8.611 48.530,8.448 48.574,8.283 48.617 M106.604 49.578 C 106.709 49.851,107.135 50.039,107.348 49.907 C 107.669 49.709,107.478 49.415,107.008 49.382 C 106.650 49.357,106.540 49.411,106.604 49.578 M12.176 50.100 C 11.951 50.314,11.820 50.542,11.884 50.606 C 11.948 50.670,12.000 50.629,12.000 50.515 C 12.000 50.370,12.165 50.338,12.542 50.411 C 12.998 50.498,13.034 50.484,12.772 50.321 C 12.543 50.180,12.515 50.094,12.664 50.001 C 12.777 49.932,12.805 49.838,12.726 49.792 C 12.648 49.747,12.400 49.885,12.176 50.100 M107.667 49.896 C 107.667 50.036,107.542 50.220,107.390 50.305 C 107.144 50.442,107.154 50.474,107.475 50.575 C 107.675 50.639,107.800 50.752,107.754 50.827 C 107.708 50.901,107.894 50.996,108.168 51.036 C 108.508 51.086,108.667 51.039,108.667 50.888 C 108.667 50.766,108.573 50.666,108.458 50.664 C 108.315 50.662,108.307 50.624,108.433 50.539 C 108.550 50.460,108.446 50.278,108.141 50.029 C 107.774 49.729,107.667 49.699,107.667 49.896 M91.846 50.370 C 91.837 50.566,91.746 50.623,91.556 50.550 C 91.365 50.476,91.318 50.506,91.404 50.646 C 91.472 50.757,91.433 50.976,91.316 51.132 C 91.199 51.289,91.314 51.219,91.572 50.976 C 91.829 50.734,91.999 50.434,91.950 50.310 C 91.886 50.151,91.856 50.169,91.846 50.370 M11.000 51.141 C 11.000 51.258,10.925 51.307,10.833 51.250 C 10.742 51.193,10.667 51.226,10.667 51.323 C 10.667 51.421,10.835 51.506,11.042 51.513 C 11.248 51.520,11.323 51.564,11.208 51.610 C 11.094 51.657,11.000 51.779,11.000 51.883 C 11.000 51.987,11.129 51.943,11.286 51.786 C 11.556 51.516,11.556 51.484,11.286 51.214 C 11.093 51.021,11.000 50.998,11.000 51.141 M5.531 51.917 C 5.200 52.298,5.257 52.429,5.721 52.349 C 5.796 52.336,5.815 52.395,5.762 52.481 C 5.709 52.567,5.485 52.617,5.264 52.593 C 4.984 52.562,4.889 52.617,4.949 52.775 C 4.997 52.899,5.140 53.000,5.268 53.000 C 5.396 53.000,5.537 53.000,5.583 53.000 C 5.629 53.000,5.673 52.944,5.681 52.875 C 5.707 52.640,6.037 52.337,6.174 52.421 C 6.249 52.468,6.365 52.418,6.431 52.310 C 6.511 52.181,6.473 52.156,6.317 52.237 C 6.189 52.303,6.229 52.240,6.407 52.096 C 6.719 51.842,6.715 51.833,6.272 51.833 C 6.009 51.833,5.858 51.762,5.917 51.667 C 6.106 51.360,5.897 51.496,5.531 51.917 M102.405 51.794 C 102.134 51.979,101.993 52.476,102.178 52.590 C 102.268 52.646,102.331 52.630,102.318 52.554 C 102.258 52.209,102.355 52.144,102.615 52.355 C 102.859 52.553,102.882 52.548,102.794 52.312 C 102.738 52.163,102.777 51.956,102.880 51.854 C 103.097 51.636,102.707 51.587,102.405 51.794 M96.167 52.167 C 96.167 52.258,96.054 52.333,95.917 52.333 C 95.779 52.333,95.667 52.446,95.667 52.583 C 95.667 52.721,95.746 52.833,95.843 52.833 C 95.940 52.833,95.969 52.751,95.906 52.649 C 95.843 52.548,95.991 52.596,96.235 52.755 C 96.478 52.915,96.725 52.997,96.783 52.939 C 96.841 52.881,96.809 52.833,96.712 52.833 C 96.615 52.833,96.488 52.710,96.431 52.560 C 96.339 52.321,96.363 52.315,96.621 52.515 C 96.870 52.708,96.866 52.685,96.599 52.372 C 96.247 51.959,96.167 51.921,96.167 52.167 M103.593 52.411 C 103.793 52.562,103.833 52.658,103.698 52.661 C 103.579 52.664,103.531 52.749,103.593 52.849 C 103.671 52.975,103.785 52.954,103.956 52.782 C 104.265 52.473,104.100 52.167,103.625 52.167 C 103.277 52.167,103.276 52.172,103.593 52.411 M105.545 52.490 C 105.558 52.667,105.701 52.847,105.862 52.889 C 106.183 52.973,106.196 52.713,105.887 52.379 C 105.613 52.083,105.517 52.114,105.545 52.490 M9.557 52.926 C 9.502 53.069,9.366 53.151,9.255 53.108 C 8.967 52.998,8.602 53.261,8.738 53.481 C 8.879 53.708,9.667 53.729,9.667 53.506 C 9.667 53.418,9.831 53.193,10.031 53.006 L 10.396 52.667 10.026 52.667 C 9.823 52.667,9.611 52.783,9.557 52.926 M98.593 53.589 C 98.415 53.723,98.331 53.833,98.405 53.833 C 98.480 53.833,98.447 53.946,98.333 54.083 C 98.219 54.221,98.154 54.339,98.188 54.346 C 98.701 54.452,98.859 54.433,99.115 54.239 C 99.406 54.019,99.406 54.010,99.115 54.005 C 98.949 54.002,98.861 53.924,98.918 53.831 C 98.976 53.737,99.112 53.714,99.220 53.779 C 99.332 53.847,99.318 53.776,99.188 53.615 C 99.062 53.460,98.950 53.336,98.938 53.339 C 98.926 53.342,98.771 53.454,98.593 53.589 M111.766 54.289 C 111.598 54.458,111.656 54.859,111.833 54.750 C 111.925 54.693,112.000 54.726,112.000 54.823 C 112.000 54.921,112.079 55.000,112.177 55.000 C 112.274 55.000,112.299 54.906,112.233 54.792 C 112.167 54.677,112.177 54.642,112.255 54.713 C 112.334 54.784,112.421 54.996,112.450 55.184 C 112.509 55.572,112.884 56.000,113.165 56.000 C 113.268 56.000,113.314 56.063,113.267 56.139 C 113.220 56.215,113.287 56.278,113.417 56.278 C 113.546 56.278,113.613 56.215,113.566 56.139 C 113.519 56.063,113.555 56.000,113.646 56.000 C 113.738 56.000,113.802 55.854,113.788 55.675 C 113.768 55.410,113.718 55.387,113.517 55.550 C 113.349 55.686,113.306 55.689,113.383 55.560 C 113.447 55.454,113.320 55.254,113.095 55.106 C 112.873 54.961,112.649 54.706,112.596 54.540 C 112.503 54.248,111.969 54.086,111.766 54.289 M100.274 54.949 C 100.014 55.294,100.009 55.366,100.230 55.587 C 100.388 55.745,100.517 55.773,100.584 55.665 C 100.642 55.571,100.753 55.533,100.829 55.581 C 100.906 55.628,100.925 55.498,100.872 55.292 C 100.786 54.958,100.806 54.942,101.054 55.145 C 101.478 55.493,101.388 55.274,100.950 54.894 L 100.567 54.561 100.274 54.949 M7.036 55.059 C 7.060 55.347,7.148 55.430,7.368 55.373 C 7.577 55.318,7.666 55.388,7.664 55.606 C 7.662 55.867,7.636 55.877,7.500 55.667 C 7.360 55.450,7.338 55.453,7.336 55.691 C 7.334 55.938,7.649 56.167,7.994 56.167 C 8.068 56.167,8.162 55.990,8.203 55.773 C 8.257 55.490,8.205 55.385,8.016 55.398 C 7.872 55.408,7.679 55.248,7.587 55.042 C 7.368 54.547,6.995 54.558,7.036 55.059 M1.187 55.380 C 1.084 55.483,1.001 55.795,1.003 56.075 C 1.004 56.417,1.051 56.511,1.146 56.361 C 1.224 56.238,1.316 56.156,1.352 56.177 C 1.388 56.198,1.598 56.158,1.819 56.088 C 2.172 55.976,2.187 55.941,1.940 55.803 C 1.786 55.717,1.698 55.584,1.746 55.507 C 1.883 55.285,1.393 55.174,1.187 55.380 M113.164 55.729 C 113.166 55.809,113.055 55.781,112.919 55.668 C 112.782 55.555,112.716 55.388,112.773 55.297 C 112.876 55.130,113.159 55.442,113.164 55.729 M1.500 55.760 C 1.500 55.994,1.432 56.144,1.348 56.093 C 1.227 56.017,1.215 55.719,1.321 55.375 C 1.383 55.170,1.500 55.421,1.500 55.760 M102.557 55.593 C 102.501 55.739,102.349 55.811,102.210 55.758 C 102.036 55.691,101.993 55.741,102.065 55.928 C 102.121 56.074,102.169 56.282,102.172 56.389 C 102.175 56.496,102.253 56.452,102.347 56.292 C 102.440 56.131,102.635 56.000,102.779 56.000 C 102.979 56.000,102.997 55.947,102.855 55.776 C 102.753 55.653,102.719 55.503,102.779 55.443 C 102.840 55.383,102.837 55.333,102.773 55.333 C 102.709 55.333,102.611 55.450,102.557 55.593 M55.333 55.823 C 55.333 56.001,55.390 56.182,55.458 56.224 C 55.527 56.267,55.583 56.121,55.583 55.901 C 55.583 55.680,55.527 55.500,55.458 55.500 C 55.390 55.500,55.333 55.646,55.333 55.823 M0.000 56.917 C 0.000 57.066,0.152 57.166,0.375 57.164 C 0.660 57.162,0.694 57.126,0.515 57.013 C 0.333 56.897,0.370 56.846,0.681 56.788 C 1.005 56.727,0.978 56.708,0.542 56.689 C 0.161 56.673,0.000 56.741,0.000 56.917 M111.244 59.343 C 111.189 59.432,111.085 59.469,111.013 59.424 C 110.940 59.380,110.917 59.529,110.960 59.755 C 111.003 59.981,111.110 60.167,111.196 60.167 C 111.282 60.167,111.299 60.079,111.232 59.972 C 111.153 59.843,111.201 59.811,111.376 59.878 C 111.591 59.960,111.833 59.718,111.833 59.421 C 111.833 59.271,111.329 59.205,111.244 59.343 M3.723 59.875 C 3.503 60.227,3.522 60.473,3.775 60.570 C 3.909 60.621,3.972 60.590,3.917 60.500 C 3.860 60.408,3.928 60.380,4.074 60.436 C 4.215 60.490,4.283 60.621,4.225 60.726 C 4.158 60.845,4.201 60.839,4.340 60.711 C 4.756 60.325,4.666 59.842,4.210 60.015 C 3.661 60.224,3.593 60.206,3.833 59.917 C 3.947 59.779,3.999 59.667,3.947 59.667 C 3.895 59.667,3.794 59.760,3.723 59.875 M63.000 60.518 C 63.000 60.632,62.840 60.663,62.582 60.598 C 62.175 60.496,62.172 60.502,62.456 60.834 C 62.616 61.021,62.773 61.097,62.805 61.003 C 62.836 60.908,62.930 60.874,63.014 60.925 C 63.098 60.977,63.167 60.865,63.167 60.677 C 63.167 60.488,63.129 60.333,63.083 60.333 C 63.038 60.333,63.000 60.416,63.000 60.518 M50.333 61.657 C 50.333 61.780,50.225 61.827,50.075 61.770 C 49.932 61.715,49.858 61.738,49.909 61.821 C 49.960 61.904,49.908 62.010,49.793 62.056 C 49.630 62.121,49.632 62.143,49.802 62.154 C 49.921 62.161,49.973 62.242,49.917 62.333 C 49.859 62.427,49.995 62.500,50.229 62.500 C 50.591 62.500,50.634 62.441,50.562 62.045 C 50.473 61.552,50.333 61.315,50.333 61.657 M64.757 62.465 C 64.710 62.512,64.802 62.649,64.961 62.770 C 65.139 62.905,65.170 62.991,65.042 62.995 C 64.927 62.998,64.833 63.117,64.833 63.260 C 64.833 63.403,64.908 63.473,65.000 63.417 C 65.092 63.360,65.167 63.468,65.167 63.657 C 65.167 63.846,65.246 64.000,65.343 64.000 C 65.440 64.000,65.477 63.931,65.425 63.848 C 65.374 63.764,65.406 63.670,65.498 63.639 C 65.680 63.578,65.853 62.513,65.686 62.479 C 65.304 62.400,64.829 62.393,64.757 62.465 M61.189 63.792 C 60.954 64.230,60.944 64.554,61.169 64.415 C 61.263 64.357,61.288 64.229,61.227 64.129 C 61.160 64.021,61.193 63.997,61.310 64.069 C 61.418 64.135,61.462 64.260,61.410 64.345 C 61.357 64.430,61.385 64.500,61.472 64.500 C 61.747 64.500,61.819 64.045,61.594 63.736 C 61.389 63.456,61.367 63.459,61.189 63.792 M58.386 64.398 L 57.856 64.593 58.345 64.982 C 58.613 65.196,58.833 65.459,58.833 65.567 C 58.833 65.674,59.001 65.775,59.206 65.790 C 59.475 65.811,59.515 65.779,59.349 65.676 C 59.217 65.595,59.164 65.414,59.225 65.256 C 59.289 65.088,59.413 65.028,59.540 65.105 C 59.703 65.202,59.702 65.171,59.536 64.966 C 59.418 64.821,59.343 64.605,59.369 64.486 C 59.433 64.196,59.033 64.160,58.386 64.398 M296.552 64.939 C 296.411 65.307,296.630 65.667,296.995 65.667 C 297.222 65.667,297.333 65.557,297.333 65.333 C 297.333 65.150,297.334 64.944,297.335 64.875 C 297.339 64.649,296.641 64.706,296.552 64.939 M54.589 64.992 C 54.527 65.091,54.396 65.122,54.296 65.060 C 54.188 64.994,54.163 65.026,54.234 65.141 C 54.299 65.247,54.293 65.427,54.221 65.542 C 53.786 66.227,54.684 66.754,55.465 66.271 C 55.744 66.099,55.718 65.833,55.423 65.833 C 55.207 65.833,54.711 65.171,54.819 65.028 C 54.842 64.997,54.825 64.936,54.781 64.892 C 54.736 64.847,54.650 64.892,54.589 64.992 M45.750 65.455 C 45.405 65.542,45.172 65.795,45.172 66.083 C 45.172 66.175,45.235 66.150,45.313 66.028 C 45.420 65.858,45.476 65.888,45.545 66.153 C 45.681 66.674,46.340 66.624,46.296 66.095 C 46.278 65.873,46.191 65.735,46.103 65.789 C 46.012 65.846,45.989 65.769,46.050 65.611 C 46.108 65.458,46.140 65.342,46.120 65.353 C 46.100 65.363,45.933 65.409,45.750 65.455 M68.415 65.665 C 68.474 65.759,68.407 65.787,68.259 65.730 C 68.116 65.676,68.000 65.714,68.000 65.816 C 68.000 65.917,68.110 66.000,68.245 66.000 C 68.395 66.000,68.452 66.098,68.393 66.252 C 68.326 66.427,68.373 66.474,68.548 66.407 C 68.901 66.272,69.018 65.709,68.718 65.594 C 68.369 65.460,68.299 65.477,68.415 65.665 M296.571 66.126 C 296.643 66.354,296.620 66.500,296.511 66.500 C 296.142 66.500,296.278 77.788,296.652 78.190 L 296.971 78.532 297.156 78.186 C 297.494 77.554,297.385 66.084,297.043 66.361 C 296.893 66.483,296.820 66.498,296.883 66.394 C 296.945 66.290,296.874 66.103,296.724 65.979 C 296.483 65.778,296.465 65.795,296.571 66.126 M293.931 66.125 C 293.810 66.245,293.748 66.264,293.292 66.315 C 293.132 66.333,293.130 66.368,293.283 66.465 C 293.421 66.553,293.499 67.403,293.533 69.197 C 293.561 70.630,293.532 71.770,293.470 71.732 C 293.407 71.693,293.318 71.724,293.270 71.800 C 293.223 71.877,293.407 71.939,293.679 71.939 C 294.014 71.939,294.118 71.885,294.003 71.770 C 293.798 71.565,293.769 66.500,293.972 66.500 C 294.049 66.500,294.111 66.387,294.111 66.250 C 294.111 65.963,294.100 65.955,293.931 66.125 M63.757 66.957 C 63.707 67.088,63.673 67.357,63.680 67.555 C 63.688 67.769,63.730 67.824,63.783 67.689 C 63.860 67.498,63.896 67.498,64.018 67.689 C 64.130 67.867,64.162 67.852,64.164 67.623 C 64.166 67.388,64.267 67.346,64.662 67.416 C 65.358 67.538,65.169 67.134,64.422 66.901 C 63.960 66.756,63.831 66.767,63.757 66.957 M44.249 67.606 C 44.525 67.882,44.586 68.073,44.352 67.928 C 44.271 67.878,44.102 67.963,43.977 68.116 C 43.781 68.358,43.786 68.382,44.021 68.294 C 44.171 68.238,44.377 68.277,44.480 68.380 C 44.618 68.518,44.667 68.493,44.667 68.283 C 44.667 68.127,44.797 67.998,44.958 67.995 C 45.224 67.990,45.223 67.974,44.938 67.809 C 44.720 67.682,44.685 67.591,44.823 67.506 C 44.934 67.438,44.797 67.378,44.509 67.370 C 44.054 67.357,44.026 67.383,44.249 67.606 M65.333 67.493 C 65.333 67.589,65.165 67.673,64.958 67.680 C 64.752 67.687,64.678 67.731,64.793 67.777 C 64.908 67.824,64.960 67.930,64.908 68.014 C 64.771 68.236,65.204 68.191,65.519 67.951 C 65.746 67.778,65.753 67.712,65.561 67.533 C 65.429 67.409,65.333 67.393,65.333 67.493 M69.459 67.751 C 69.416 67.974,69.439 68.121,69.510 68.077 C 69.580 68.034,69.673 68.092,69.716 68.207 C 69.770 68.351,69.832 68.327,69.913 68.129 C 69.985 67.957,69.933 67.743,69.784 67.594 C 69.565 67.374,69.528 67.392,69.459 67.751 M48.667 68.434 C 48.667 68.614,48.757 68.668,48.940 68.597 C 49.180 68.505,49.185 68.529,48.982 68.788 C 48.771 69.056,48.776 69.063,49.042 68.855 C 49.434 68.547,49.411 68.167,49.000 68.167 C 48.805 68.167,48.667 68.278,48.667 68.434 M42.001 69.385 C 41.773 69.499,41.560 69.730,41.527 69.899 C 41.490 70.089,41.538 70.163,41.651 70.093 C 41.751 70.031,41.834 70.079,41.836 70.198 C 41.838 70.348,41.877 70.359,41.961 70.232 C 42.028 70.130,42.215 70.067,42.375 70.092 C 42.678 70.139,42.724 69.953,42.530 69.464 C 42.432 69.218,42.358 69.207,42.001 69.385 M46.799 69.540 C 46.975 69.753,46.975 69.815,46.799 69.879 C 46.680 69.923,46.782 69.949,47.026 69.937 C 47.269 69.926,47.437 69.867,47.400 69.806 C 47.362 69.745,47.409 69.657,47.503 69.610 C 47.598 69.563,47.579 69.547,47.462 69.573 C 47.346 69.600,47.100 69.544,46.917 69.450 C 46.626 69.301,46.611 69.312,46.799 69.540 M58.178 70.811 C 58.001 71.143,58.092 71.333,58.427 71.333 C 58.540 71.333,58.621 71.148,58.607 70.917 C 58.579 70.422,58.409 70.381,58.178 70.811 M69.082 71.336 C 69.024 71.429,68.908 71.463,68.824 71.411 C 68.739 71.358,68.720 71.444,68.780 71.602 C 68.854 71.795,68.827 71.849,68.697 71.769 C 68.571 71.691,68.538 71.739,68.603 71.908 C 68.658 72.050,68.774 72.167,68.861 72.167 C 68.948 72.167,68.979 72.100,68.928 72.019 C 68.878 71.938,68.994 71.830,69.185 71.780 C 69.377 71.730,69.488 71.615,69.432 71.525 C 69.377 71.435,69.425 71.324,69.541 71.277 C 69.671 71.225,69.643 71.188,69.468 71.180 C 69.313 71.173,69.139 71.243,69.082 71.336 M54.240 71.596 C 54.062 71.740,54.004 71.815,54.111 71.761 C 54.218 71.708,54.332 71.745,54.364 71.843 C 54.399 71.946,54.592 71.876,54.821 71.678 C 55.326 71.239,54.775 71.162,54.240 71.596 M39.931 71.895 C 40.013 72.107,39.969 72.144,39.741 72.057 C 39.538 71.979,39.483 72.005,39.567 72.139 C 39.633 72.247,39.535 72.550,39.349 72.812 C 39.162 73.073,39.048 73.326,39.094 73.372 C 39.140 73.418,38.989 73.420,38.758 73.376 C 38.526 73.331,38.378 73.229,38.428 73.148 C 38.565 72.927,38.266 72.970,38.009 73.208 C 37.827 73.377,37.810 73.372,37.918 73.183 C 38.001 73.037,37.987 72.988,37.880 73.055 C 37.786 73.113,37.708 73.348,37.708 73.577 C 37.708 73.806,37.774 73.953,37.854 73.904 C 37.934 73.854,38.000 73.924,38.000 74.060 C 38.000 74.195,37.924 74.331,37.832 74.362 C 37.739 74.393,37.814 74.512,37.998 74.627 C 38.278 74.802,38.333 74.795,38.333 74.585 C 38.333 74.446,38.483 74.183,38.667 74.000 C 38.850 73.817,39.000 73.701,39.000 73.744 C 39.000 73.787,39.173 73.655,39.385 73.452 C 39.597 73.249,39.759 72.973,39.745 72.839 C 39.731 72.704,39.866 72.476,40.044 72.331 C 40.340 72.091,40.345 72.050,40.097 71.844 C 39.863 71.651,39.840 71.658,39.931 71.895 M129.740 72.516 C 129.697 72.586,129.734 72.689,129.823 72.744 C 129.912 72.799,129.942 72.956,129.890 73.094 C 129.794 73.343,130.342 73.333,131.658 73.061 C 132.245 72.940,131.767 72.673,130.958 72.669 C 130.615 72.668,130.333 72.604,130.333 72.528 C 130.333 72.354,129.846 72.344,129.740 72.516 M194.321 72.398 C 194.199 72.584,194.209 73.160,194.333 73.084 C 194.425 73.027,194.500 73.060,194.500 73.158 C 194.500 73.274,194.618 73.263,194.837 73.126 C 195.269 72.858,195.190 72.422,194.706 72.398 C 194.501 72.387,194.328 72.387,194.321 72.398 M232.333 72.632 C 232.333 72.819,232.240 73.010,232.125 73.057 C 231.968 73.120,231.978 73.185,232.167 73.320 C 232.358 73.456,232.485 73.416,232.708 73.147 C 232.979 72.822,233.136 72.308,232.890 72.554 C 232.830 72.614,232.680 72.580,232.557 72.478 C 232.382 72.333,232.333 72.367,232.333 72.632 M266.994 72.547 C 266.853 72.659,266.767 72.892,266.802 73.066 C 266.854 73.319,266.896 73.335,267.014 73.149 C 267.120 72.983,267.162 72.976,267.164 73.125 C 267.169 73.502,285.724 73.420,286.021 73.042 C 286.229 72.777,286.223 72.771,285.958 72.979 C 285.626 73.239,285.559 73.008,285.875 72.690 C 286.042 72.522,286.020 72.504,285.764 72.602 C 285.542 72.687,285.482 72.664,285.566 72.528 C 285.744 72.240,267.357 72.259,266.994 72.547 M331.317 72.621 C 331.477 72.933,331.467 72.977,331.252 72.894 C 331.068 72.824,331.025 72.871,331.099 73.065 C 331.221 73.381,331.661 73.427,331.678 73.125 C 331.685 73.010,331.755 73.067,331.835 73.250 C 331.950 73.514,331.970 73.471,331.934 73.041 C 331.908 72.743,331.826 72.443,331.750 72.374 C 331.675 72.306,331.667 72.344,331.733 72.458 C 331.799 72.573,331.789 72.667,331.710 72.667 C 331.631 72.667,331.467 72.573,331.346 72.458 C 331.164 72.286,331.159 72.315,331.317 72.621 M43.777 72.804 C 43.609 72.989,43.548 73.177,43.637 73.232 C 43.834 73.353,44.220 72.911,44.136 72.659 C 44.100 72.550,43.953 72.609,43.777 72.804 M75.680 73.308 C 75.429 73.778,75.804 74.078,76.198 73.722 C 76.516 73.434,76.619 73.073,76.333 73.250 C 76.242 73.307,76.167 73.274,76.167 73.177 C 76.167 72.891,75.859 72.974,75.680 73.308 M301.056 73.111 C 301.117 73.173,301.036 73.373,300.875 73.557 C 300.715 73.740,300.671 73.840,300.777 73.778 C 300.884 73.715,301.000 73.750,301.035 73.854 C 301.073 73.970,301.242 73.998,301.466 73.928 C 301.758 73.835,301.800 73.750,301.672 73.511 C 301.584 73.346,301.559 73.163,301.617 73.105 C 301.675 73.047,301.547 73.000,301.333 73.000 C 301.119 73.000,300.995 73.050,301.056 73.111 M304.417 73.166 C 304.130 73.630,304.192 74.000,304.557 74.000 C 304.810 74.000,304.937 73.893,304.954 73.667 C 304.969 73.471,304.877 73.333,304.730 73.333 C 304.593 73.333,304.527 73.258,304.583 73.167 C 304.640 73.075,304.649 73.000,304.603 73.000 C 304.557 73.000,304.473 73.075,304.417 73.166 M194.583 73.608 C 194.475 73.646,194.446 75.322,194.500 78.408 C 194.546 81.017,194.528 83.096,194.461 83.028 C 194.394 82.961,194.318 80.883,194.292 78.411 L 194.244 73.917 194.205 78.528 C 194.175 82.095,194.214 83.155,194.375 83.212 C 194.974 83.421,195.000 83.227,195.000 78.556 C 195.000 75.548,194.943 74.016,194.833 74.083 C 194.742 74.140,194.667 74.112,194.667 74.022 C 194.667 73.932,194.798 73.831,194.958 73.799 C 195.198 73.751,195.205 73.723,195.000 73.645 C 194.862 73.592,194.675 73.575,194.583 73.608 M335.083 73.775 C 334.984 73.809,334.939 74.412,334.971 75.273 C 335.008 76.247,334.963 76.753,334.831 76.835 C 334.711 76.909,334.800 76.987,335.063 77.037 C 335.298 77.082,335.450 77.054,335.402 76.976 C 335.353 76.897,335.468 76.833,335.657 76.833 C 336.130 76.833,336.184 74.190,335.718 73.812 C 335.526 73.657,335.476 73.650,335.561 73.792 C 335.630 73.906,335.613 74.000,335.524 74.000 C 335.434 74.000,335.336 73.936,335.306 73.858 C 335.275 73.780,335.175 73.743,335.083 73.775 M60.656 73.970 C 60.468 74.052,60.429 74.199,60.515 74.500 C 60.614 74.848,60.638 74.862,60.662 74.583 L 60.690 74.250 60.833 74.583 C 60.948 74.850,60.979 74.861,60.988 74.639 C 60.995 74.486,61.046 74.242,61.101 74.097 C 61.208 73.819,61.085 73.784,60.656 73.970 M262.458 76.791 C 262.597 86.799,262.583 88.659,262.369 88.704 C 262.237 88.733,262.292 88.834,262.512 88.971 C 262.777 89.135,262.836 89.138,262.740 88.984 C 262.650 88.838,262.696 88.809,262.898 88.886 C 263.055 88.947,263.142 88.928,263.091 88.846 C 263.040 88.763,263.055 88.670,263.124 88.639 C 263.284 88.568,263.195 73.833,263.035 73.833 C 262.970 73.833,262.919 77.040,262.921 80.958 L 262.926 88.083 262.838 81.014 C 262.782 76.528,262.689 73.924,262.583 73.889 C 262.475 73.853,262.431 74.875,262.458 76.791 M41.705 74.748 C 41.676 75.098,41.737 75.157,42.095 75.128 C 42.481 75.096,42.493 75.074,42.227 74.880 C 42.005 74.717,41.993 74.666,42.176 74.664 C 42.379 74.662,42.378 74.636,42.167 74.500 C 41.798 74.262,41.743 74.291,41.705 74.748 M62.500 75.167 C 62.346 75.454,62.374 75.502,62.702 75.512 C 63.064 75.523,63.066 75.531,62.750 75.667 C 62.514 75.768,62.492 75.813,62.675 75.822 C 62.946 75.834,63.333 75.527,63.333 75.300 C 63.333 75.227,63.240 75.185,63.125 75.208 C 63.010 75.231,62.935 75.156,62.958 75.042 C 63.025 74.711,62.696 74.800,62.500 75.167 M48.462 75.531 C 48.622 75.729,48.630 75.908,48.493 76.268 C 48.394 76.529,48.370 76.686,48.439 76.616 C 48.509 76.547,48.661 76.661,48.777 76.870 C 48.893 77.079,48.991 77.152,48.994 77.032 C 48.997 76.912,49.078 76.862,49.172 76.920 C 49.351 77.031,49.284 76.324,49.085 76.003 C 49.027 75.910,49.102 75.833,49.250 75.833 C 49.398 75.833,49.471 75.755,49.412 75.659 C 49.352 75.563,49.179 75.505,49.027 75.530 C 48.875 75.555,48.637 75.506,48.500 75.422 C 48.290 75.294,48.284 75.311,48.462 75.531 M57.457 75.688 C 57.096 75.889,57.086 76.100,57.429 76.232 C 57.796 76.373,58.231 75.927,57.952 75.696 C 57.817 75.584,57.647 75.581,57.457 75.688 M63.917 75.666 C 64.223 75.798,64.217 75.811,63.833 75.827 C 63.471 75.842,63.451 75.870,63.681 76.047 C 63.827 76.159,63.990 76.362,64.043 76.500 C 64.109 76.669,64.145 76.628,64.154 76.375 C 64.161 76.169,64.229 76.000,64.306 76.000 C 64.669 76.000,64.390 75.565,64.014 75.545 C 63.632 75.524,63.621 75.538,63.917 75.666 M286.167 75.760 C 286.167 75.903,286.092 75.973,286.000 75.917 C 285.906 75.859,285.839 75.982,285.846 76.198 C 285.854 76.410,285.898 76.487,285.946 76.369 C 286.012 76.203,286.844 76.159,289.641 76.173 C 292.124 76.186,293.245 76.136,293.233 76.013 C 293.224 75.914,293.205 75.758,293.192 75.667 C 293.145 75.356,286.167 75.449,286.167 75.760 M343.088 75.701 C 343.150 75.864,342.990 75.909,342.461 75.878 C 339.664 75.713,338.524 75.751,338.750 76.000 C 338.908 76.174,338.928 76.337,338.816 76.537 C 338.601 76.922,338.924 76.985,341.368 77.040 C 343.269 77.082,343.321 77.074,343.413 76.708 L 343.506 76.333 352.346 76.333 C 358.197 76.333,361.152 76.277,361.083 76.167 C 360.875 75.830,343.832 75.951,343.447 76.292 C 343.126 76.575,343.120 76.571,343.226 76.135 C 343.286 75.889,343.260 75.641,343.169 75.585 C 343.078 75.529,343.042 75.581,343.088 75.701 M373.266 75.693 C 373.349 75.826,373.269 75.856,373.010 75.788 C 372.803 75.733,372.675 75.731,372.726 75.781 C 372.844 75.899,372.413 76.333,372.179 76.333 C 371.932 76.333,371.955 76.479,372.250 76.774 C 372.400 76.923,372.500 76.948,372.500 76.835 C 372.500 76.732,372.576 76.694,372.669 76.752 C 372.763 76.809,372.796 76.925,372.744 77.010 C 372.691 77.095,372.779 77.113,372.941 77.051 C 373.121 76.982,373.156 76.913,373.033 76.872 C 372.798 76.794,372.761 76.167,372.992 76.167 C 373.079 76.167,373.234 76.298,373.336 76.458 C 373.488 76.698,373.502 76.662,373.417 76.263 C 373.320 75.811,373.335 75.793,373.615 76.010 C 373.882 76.217,373.880 76.202,373.599 75.872 C 373.261 75.476,373.068 75.372,373.266 75.693 M348.137 75.792 C 350.549 75.818,354.449 75.818,356.803 75.792 C 359.157 75.765,357.183 75.744,352.417 75.744 C 347.650 75.744,345.724 75.766,348.137 75.792 M54.133 76.277 C 54.084 76.465,54.115 76.747,54.202 76.903 C 54.290 77.059,54.318 77.299,54.266 77.435 C 54.212 77.576,54.242 77.640,54.335 77.582 C 54.426 77.526,54.507 77.279,54.517 77.032 C 54.532 76.618,54.542 76.612,54.642 76.954 L 54.750 77.325 54.943 76.912 C 55.106 76.562,55.094 76.500,54.859 76.497 C 54.620 76.495,54.617 76.473,54.833 76.333 C 55.047 76.195,55.041 76.171,54.792 76.169 C 54.631 76.168,54.495 76.260,54.488 76.375 C 54.482 76.490,54.419 76.437,54.350 76.259 C 54.226 75.943,54.220 75.943,54.133 76.277 M167.423 76.619 C 167.368 76.837,167.367 77.087,167.421 77.174 C 167.475 77.262,167.353 77.333,167.149 77.333 C 166.945 77.333,166.824 77.380,166.881 77.437 C 167.124 77.679,168.167 77.319,168.167 76.992 C 168.167 76.813,168.094 76.667,168.005 76.667 C 167.916 76.667,167.890 76.798,167.946 76.958 C 168.030 77.196,168.008 77.212,167.825 77.042 C 167.650 76.880,167.644 76.789,167.800 76.633 C 168.066 76.367,168.052 76.222,167.761 76.222 C 167.630 76.222,167.477 76.401,167.423 76.619 M79.750 76.833 C 79.693 76.925,79.708 77.001,79.782 77.003 C 79.856 77.004,79.804 77.078,79.667 77.167 C 79.485 77.284,79.476 77.329,79.635 77.331 C 79.755 77.332,79.810 77.403,79.757 77.488 C 79.704 77.574,79.739 77.691,79.833 77.750 C 79.928 77.809,79.972 77.911,79.930 77.978 C 79.889 78.045,79.924 78.208,80.008 78.341 C 80.135 78.542,80.162 78.534,80.164 78.292 C 80.166 78.131,80.246 78.000,80.343 78.000 C 80.440 78.000,80.463 78.094,80.395 78.208 C 80.295 78.374,80.321 78.375,80.524 78.211 C 80.740 78.036,80.778 78.077,80.778 78.495 C 80.778 78.799,80.709 78.946,80.597 78.883 C 80.498 78.826,80.475 78.844,80.546 78.923 C 80.900 79.311,81.511 78.840,81.366 78.292 C 81.348 78.223,81.404 78.167,81.490 78.167 C 81.576 78.167,81.634 78.011,81.620 77.820 C 81.598 77.531,81.514 77.489,81.122 77.567 C 80.806 77.630,80.687 77.602,80.762 77.481 C 80.842 77.351,80.779 77.351,80.537 77.480 C 80.271 77.623,80.179 77.606,80.100 77.400 C 79.944 76.993,79.982 76.802,80.192 76.933 C 80.312 77.006,80.340 76.978,80.266 76.859 C 80.120 76.622,79.888 76.611,79.750 76.833 M34.667 77.157 C 34.667 77.544,34.878 77.703,35.219 77.572 C 35.542 77.448,35.692 76.889,35.401 76.889 C 35.280 76.889,35.227 76.970,35.282 77.069 C 35.337 77.169,35.281 77.156,35.158 77.042 C 34.837 76.744,34.667 76.784,34.667 77.157 M53.703 77.269 C 53.685 77.488,53.749 77.667,53.845 77.667 C 53.941 77.667,53.973 77.592,53.917 77.500 C 53.860 77.408,53.893 77.333,53.990 77.333 C 54.239 77.333,54.210 77.052,53.951 76.953 C 53.817 76.901,53.724 77.020,53.703 77.269 M59.439 77.085 C 59.382 77.233,59.261 77.308,59.170 77.252 C 59.072 77.192,59.047 77.262,59.108 77.422 C 59.192 77.640,59.241 77.650,59.354 77.472 C 59.450 77.322,59.496 77.314,59.497 77.448 C 59.499 77.557,59.650 77.635,59.833 77.621 C 60.243 77.590,60.243 77.569,59.855 77.151 C 59.579 76.855,59.530 76.848,59.439 77.085 M65.022 77.182 C 64.639 77.493,64.638 77.500,64.982 77.500 C 65.175 77.500,65.333 77.421,65.333 77.323 C 65.333 77.226,65.408 77.193,65.500 77.250 C 65.592 77.307,65.667 77.278,65.667 77.186 C 65.667 76.868,65.413 76.866,65.022 77.182 M75.067 77.233 C 75.006 77.392,75.052 77.611,75.169 77.720 C 75.326 77.864,75.353 77.865,75.273 77.723 C 75.214 77.616,75.259 77.494,75.374 77.452 C 75.539 77.391,75.540 77.329,75.380 77.160 C 75.216 76.985,75.157 76.999,75.067 77.233 M270.440 77.449 C 270.381 77.508,270.316 79.662,270.296 82.236 L 270.258 86.917 270.167 82.167 L 270.076 77.417 270.038 82.111 C 269.997 87.174,270.021 87.423,270.517 87.158 C 270.816 86.997,270.833 86.735,270.833 82.254 C 270.833 77.959,270.765 77.124,270.440 77.449 M39.079 77.676 C 39.150 77.863,39.071 77.938,38.797 77.944 C 37.685 77.969,37.500 78.013,37.500 78.250 C 37.500 78.387,37.612 78.500,37.750 78.500 C 37.887 78.500,38.000 78.612,38.000 78.750 C 38.000 78.887,38.080 79.000,38.179 79.000 C 38.277 79.000,38.335 78.831,38.308 78.625 C 38.281 78.419,38.332 78.250,38.421 78.250 C 38.510 78.250,38.569 78.294,38.551 78.347 C 38.533 78.401,38.627 78.444,38.759 78.444 C 38.892 78.444,38.964 78.408,38.919 78.364 C 38.875 78.319,38.969 78.187,39.128 78.069 C 39.366 77.893,39.378 77.817,39.198 77.636 C 39.018 77.455,38.997 77.462,39.079 77.676 M32.621 78.379 C 32.571 78.508,32.595 78.717,32.673 78.844 C 32.788 79.030,32.837 79.017,32.930 78.776 C 32.993 78.612,32.969 78.403,32.878 78.311 C 32.766 78.200,32.681 78.222,32.621 78.379 M33.121 78.656 C 33.071 78.846,33.135 79.016,33.277 79.071 C 33.428 79.129,33.474 79.092,33.400 78.973 C 33.335 78.868,33.421 78.682,33.590 78.558 C 33.884 78.343,33.882 78.333,33.551 78.333 C 33.350 78.333,33.170 78.468,33.121 78.656 M50.606 79.083 C 50.554 79.221,50.583 79.333,50.672 79.333 C 50.761 79.333,50.885 79.335,50.948 79.338 C 51.011 79.340,51.079 79.228,51.100 79.088 C 51.148 78.759,50.732 78.755,50.606 79.083 M44.123 79.433 C 44.068 79.488,44.067 79.657,44.121 79.808 C 44.175 79.959,44.159 80.028,44.085 79.961 C 43.955 79.843,43.516 80.283,43.505 80.542 C 43.502 80.610,43.706 80.666,43.958 80.664 C 44.276 80.662,44.348 80.618,44.192 80.519 C 44.027 80.415,44.084 80.348,44.407 80.267 C 44.699 80.194,44.830 80.061,44.798 79.870 C 44.728 79.452,44.349 79.207,44.123 79.433 M396.203 79.484 C 395.762 79.773,396.064 80.116,396.611 79.948 C 396.917 79.854,397.167 79.724,397.167 79.658 C 397.167 79.498,396.394 79.358,396.203 79.484 M167.000 79.786 C 167.137 79.836,167.335 79.945,167.439 80.027 C 167.559 80.121,167.663 80.083,167.725 79.921 C 167.801 79.724,167.702 79.670,167.286 79.680 C 166.991 79.687,166.862 79.735,167.000 79.786 M69.500 80.008 C 69.500 80.106,69.425 80.140,69.333 80.083 C 69.242 80.027,69.167 80.102,69.167 80.250 C 69.167 80.398,69.242 80.473,69.333 80.417 C 69.425 80.360,69.500 80.472,69.500 80.665 C 69.500 80.945,69.557 80.985,69.779 80.860 C 70.170 80.642,70.186 80.259,69.814 80.027 C 69.603 79.895,69.500 79.889,69.500 80.008 M151.312 80.110 C 151.133 80.328,151.129 80.403,151.293 80.458 C 151.408 80.497,151.469 80.582,151.429 80.647 C 151.321 80.821,152.115 80.776,152.278 80.598 C 152.358 80.510,152.329 80.497,152.208 80.566 C 152.077 80.642,152.000 80.584,152.000 80.409 C 152.000 80.235,151.910 80.166,151.758 80.224 C 151.597 80.286,151.548 80.236,151.610 80.075 C 151.733 79.752,151.594 79.769,151.312 80.110 M190.488 79.911 C 190.481 79.914,190.442 80.095,190.402 80.314 C 190.336 80.670,190.358 80.687,190.612 80.481 C 190.862 80.277,190.882 80.286,190.783 80.550 C 190.711 80.741,190.735 80.811,190.847 80.742 C 190.943 80.682,190.986 80.537,190.941 80.420 C 190.896 80.303,190.927 80.139,191.011 80.056 C 191.120 79.946,190.672 79.822,190.488 79.911 M48.761 80.313 C 48.841 80.606,48.815 80.675,48.659 80.578 C 48.522 80.494,48.490 80.516,48.567 80.641 C 48.715 80.880,48.462 80.895,48.228 80.661 C 48.109 80.543,48.056 80.564,48.056 80.730 C 48.056 80.863,48.227 81.005,48.436 81.045 C 48.649 81.085,48.802 81.040,48.783 80.941 C 48.765 80.844,48.840 80.762,48.950 80.758 C 49.340 80.743,49.531 80.400,49.270 80.183 C 49.066 80.014,49.039 80.043,49.107 80.365 C 49.186 80.743,49.183 80.742,48.920 80.333 L 48.653 79.917 48.761 80.313 M372.500 80.343 C 372.500 80.440,372.430 80.477,372.345 80.424 C 372.260 80.371,372.148 80.396,372.097 80.478 C 372.003 80.631,372.762 80.849,372.901 80.710 C 373.017 80.594,372.818 80.167,372.649 80.167 C 372.567 80.167,372.500 80.246,372.500 80.343 M83.419 80.708 C 83.274 81.141,83.254 81.479,83.375 81.489 C 83.815 81.527,83.860 81.483,83.645 81.223 C 83.440 80.973,83.452 80.964,83.764 81.130 C 84.038 81.276,84.111 81.266,84.111 81.084 C 84.111 80.956,84.067 80.857,84.014 80.862 C 83.686 80.898,83.494 80.810,83.583 80.667 C 83.640 80.575,83.642 80.500,83.588 80.500 C 83.534 80.500,83.458 80.594,83.419 80.708 M63.705 81.087 C 63.670 81.501,63.677 81.503,64.168 81.249 C 64.686 80.982,64.854 80.772,64.417 80.940 C 64.279 80.992,64.167 80.953,64.167 80.851 C 64.167 80.467,63.738 80.686,63.705 81.087 M78.762 80.929 C 78.479 81.212,78.426 81.354,78.625 81.298 C 78.694 81.278,78.930 81.362,79.150 81.484 C 79.493 81.673,79.537 81.670,79.458 81.464 C 79.405 81.326,79.462 81.222,79.590 81.222 C 79.757 81.222,79.773 81.302,79.652 81.528 C 79.562 81.696,79.538 81.833,79.598 81.833 C 79.658 81.833,79.623 81.935,79.521 82.058 C 79.379 82.229,79.414 82.375,79.667 82.667 C 79.991 83.041,80.090 82.951,80.009 82.358 C 79.992 82.234,80.042 82.173,80.120 82.221 C 80.198 82.269,80.262 82.164,80.262 81.988 C 80.262 81.811,80.212 81.667,80.150 81.667 C 80.089 81.667,80.000 81.517,79.952 81.333 C 79.855 80.963,79.252 80.875,79.099 81.208 C 79.046 81.323,79.045 81.248,79.096 81.042 C 79.206 80.600,79.120 80.571,78.762 80.929 M29.608 81.416 C 29.272 81.751,29.270 81.778,29.576 81.778 C 29.709 81.778,29.773 81.704,29.717 81.613 C 29.661 81.523,29.698 81.500,29.800 81.563 C 29.902 81.626,29.940 81.795,29.885 81.939 C 29.798 82.166,29.831 82.171,30.143 81.976 C 30.485 81.762,30.566 81.446,30.264 81.502 C 30.185 81.516,30.067 81.442,30.001 81.335 C 29.915 81.196,29.804 81.219,29.608 81.416 M41.795 81.397 C 41.528 81.599,41.538 81.630,41.927 81.808 C 42.514 82.075,42.596 82.049,42.275 81.695 C 42.124 81.527,42.049 81.339,42.111 81.278 C 42.299 81.090,42.100 81.165,41.795 81.397 M47.904 81.313 C 48.026 81.511,48.667 81.670,48.667 81.502 C 48.667 81.364,48.261 81.167,47.977 81.167 C 47.887 81.167,47.854 81.233,47.904 81.313 M65.583 81.501 C 65.526 81.593,65.596 81.706,65.739 81.751 C 65.883 81.796,66.127 81.874,66.282 81.924 C 66.532 82.004,66.529 81.975,66.256 81.674 C 65.914 81.296,65.738 81.250,65.583 81.501 M71.314 81.724 C 71.080 81.895,71.076 81.951,71.283 82.144 C 71.485 82.333,71.536 82.315,71.611 82.029 C 71.664 81.824,71.792 81.725,71.933 81.779 C 72.062 81.829,72.167 81.802,72.167 81.720 C 72.167 81.497,71.621 81.499,71.314 81.724 M72.193 82.019 C 72.004 82.323,72.010 82.415,72.235 82.640 C 72.409 82.814,72.500 82.835,72.500 82.702 C 72.500 82.591,72.579 82.500,72.677 82.500 C 72.774 82.500,72.807 82.575,72.750 82.667 C 72.692 82.761,72.827 82.833,73.061 82.833 C 73.467 82.833,73.470 82.824,73.220 82.322 C 73.069 82.021,72.874 81.846,72.743 81.896 C 72.621 81.943,72.498 81.910,72.469 81.822 C 72.439 81.735,72.315 81.824,72.193 82.019 M27.909 82.488 C 27.970 82.586,27.928 82.667,27.815 82.667 C 27.703 82.667,27.660 82.716,27.721 82.776 C 27.781 82.837,27.760 82.971,27.674 83.074 C 27.568 83.202,27.621 83.262,27.843 83.262 C 28.021 83.262,28.172 83.147,28.178 83.006 C 28.187 82.828,28.233 82.851,28.333 83.083 C 28.476 83.416,28.477 83.416,28.488 83.082 C 28.495 82.898,28.342 82.648,28.149 82.528 C 27.956 82.407,27.848 82.389,27.909 82.488 M45.453 82.663 C 45.404 82.848,45.437 83.000,45.525 83.000 C 45.614 83.000,45.645 83.066,45.595 83.148 C 45.545 83.229,45.653 83.334,45.835 83.382 C 46.017 83.430,46.209 83.399,46.262 83.314 C 46.315 83.228,46.296 83.169,46.221 83.182 C 45.849 83.247,45.801 83.141,46.093 82.904 C 46.271 82.760,46.312 82.696,46.183 82.763 C 46.043 82.835,45.867 82.772,45.745 82.605 C 45.558 82.349,45.534 82.354,45.453 82.663 M391.189 83.195 C 391.177 83.348,391.118 83.610,391.059 83.778 C 390.976 84.014,390.998 84.040,391.156 83.894 C 391.269 83.790,391.328 83.528,391.287 83.311 C 391.246 83.094,391.202 83.042,391.189 83.195 M85.941 83.414 C 85.885 83.558,85.978 83.732,86.162 83.831 C 86.575 84.052,86.611 84.046,86.611 83.757 C 86.611 83.624,86.549 83.553,86.472 83.601 C 86.396 83.648,86.333 83.569,86.333 83.427 C 86.333 83.096,86.066 83.088,85.941 83.414 M373.609 83.578 C 373.535 83.770,373.619 83.801,374.007 83.724 C 374.391 83.647,374.500 83.685,374.500 83.896 C 374.500 84.142,375.226 84.167,382.495 84.167 C 389.533 84.167,390.478 84.137,390.394 83.917 C 390.327 83.743,390.405 83.667,390.649 83.667 C 390.842 83.667,391.000 83.592,391.000 83.500 C 391.000 83.201,373.723 83.278,373.609 83.578 M82.269 83.927 C 82.214 84.071,82.084 84.135,81.980 84.071 C 81.864 83.999,81.820 84.044,81.867 84.185 C 81.910 84.312,82.013 84.418,82.097 84.419 C 82.181 84.421,82.355 84.488,82.484 84.570 C 82.645 84.672,82.681 84.658,82.599 84.526 C 82.529 84.412,82.586 84.333,82.740 84.333 C 82.889 84.333,83.000 84.191,83.000 84.000 C 83.000 83.596,82.418 83.538,82.269 83.927 M372.417 83.806 C 372.153 84.069,372.361 84.448,372.730 84.378 C 373.009 84.325,373.105 84.216,373.051 84.012 C 372.981 83.741,372.604 83.618,372.417 83.806 M167.072 84.019 C 167.009 84.121,167.023 84.252,167.104 84.310 C 167.305 84.457,167.380 84.882,167.182 84.760 C 167.095 84.706,166.973 84.743,166.911 84.842 C 166.837 84.962,166.983 85.006,167.342 84.970 C 168.083 84.897,168.262 84.168,167.541 84.164 C 167.184 84.162,167.138 84.126,167.333 84.000 C 167.484 83.903,167.504 83.837,167.385 83.836 C 167.276 83.834,167.135 83.917,167.072 84.019 M391.765 83.976 C 391.709 84.067,391.795 84.176,391.956 84.218 C 392.230 84.290,392.230 84.296,391.948 84.314 C 391.783 84.325,391.693 84.408,391.750 84.500 C 391.980 84.872,400.000 84.710,400.000 84.333 C 400.000 84.010,399.889 84.000,396.180 84.000 C 394.079 84.000,392.250 83.957,392.114 83.905 C 391.978 83.853,391.821 83.885,391.765 83.976 M69.542 84.118 C 69.335 84.157,69.167 84.264,69.167 84.355 C 69.167 84.445,69.254 84.465,69.362 84.399 C 69.490 84.320,69.523 84.367,69.457 84.537 C 69.383 84.731,69.441 84.774,69.689 84.709 C 69.873 84.661,69.982 84.527,69.935 84.406 C 69.890 84.286,69.942 84.152,70.051 84.107 C 70.285 84.012,70.068 84.016,69.542 84.118 M42.667 84.583 C 42.667 84.721,42.742 84.833,42.833 84.833 C 42.925 84.833,42.981 84.901,42.958 84.983 C 42.935 85.066,42.973 85.141,43.042 85.150 C 43.388 85.196,43.511 85.152,43.424 85.012 C 43.371 84.926,43.412 84.804,43.515 84.741 C 43.648 84.659,43.636 84.583,43.476 84.482 C 43.117 84.254,42.667 84.310,42.667 84.583 M77.615 85.215 C 77.685 85.326,77.720 85.548,77.694 85.708 C 77.630 86.095,77.749 86.076,78.160 85.635 C 78.609 85.153,78.591 85.090,77.994 85.048 C 77.633 85.023,77.524 85.070,77.615 85.215 M372.169 85.986 C 372.172 86.861,372.386 87.370,372.560 86.917 C 372.776 86.354,372.681 85.222,372.417 85.222 C 372.230 85.222,372.167 85.417,372.169 85.986 M372.858 86.125 C 372.890 86.606,372.859 87.032,372.787 87.071 C 372.716 87.110,372.751 87.123,372.865 87.101 C 373.066 87.061,373.083 85.526,372.885 85.333 C 372.838 85.287,372.825 85.644,372.858 86.125 M72.065 85.930 C 72.118 86.068,72.055 86.167,71.911 86.167 C 71.777 86.167,71.667 86.240,71.667 86.329 C 71.667 86.429,71.812 86.437,72.042 86.349 C 72.248 86.271,72.490 86.203,72.579 86.199 C 72.781 86.190,72.914 85.838,72.722 85.821 C 72.646 85.814,72.446 85.782,72.279 85.750 C 72.071 85.711,72.003 85.768,72.065 85.930 M23.897 86.589 C 23.543 87.131,23.672 87.237,24.625 87.186 C 25.063 87.163,25.140 86.835,24.708 86.831 C 24.508 86.829,24.480 86.788,24.618 86.700 C 24.764 86.607,24.730 86.516,24.497 86.370 C 24.219 86.196,24.135 86.227,23.897 86.589 M30.062 86.409 C 29.574 86.751,29.430 87.320,29.860 87.208 C 30.195 87.120,30.558 86.591,30.468 86.321 C 30.439 86.233,30.256 86.273,30.062 86.409 M293.915 87.003 C 293.857 87.096,293.752 87.136,293.680 87.091 C 293.608 87.047,293.407 87.126,293.233 87.268 C 293.059 87.409,293.010 87.477,293.125 87.419 C 293.252 87.355,293.333 87.426,293.333 87.599 C 293.333 87.869,293.351 87.869,293.649 87.599 C 293.895 87.377,293.985 87.362,294.054 87.531 C 294.102 87.652,294.131 87.544,294.118 87.292 C 294.092 86.786,294.069 86.754,293.915 87.003 M167.167 87.167 C 166.779 87.291,166.775 87.301,167.115 87.317 C 167.316 87.326,167.527 87.408,167.583 87.500 C 167.640 87.592,167.776 87.661,167.885 87.654 C 168.028 87.644,168.025 87.617,167.875 87.556 C 167.575 87.435,167.619 87.204,167.958 87.115 C 168.198 87.052,168.191 87.038,167.917 87.036 C 167.733 87.034,167.396 87.093,167.167 87.167 M23.238 87.826 C 23.238 88.014,23.301 88.167,23.379 88.167 C 23.456 88.167,23.477 88.236,23.424 88.322 C 23.371 88.407,23.404 88.524,23.497 88.582 C 23.590 88.639,23.667 88.607,23.667 88.510 C 23.667 88.413,23.723 88.342,23.792 88.353 C 24.103 88.402,24.194 88.317,24.035 88.125 C 23.939 88.010,23.874 87.842,23.889 87.750 C 23.904 87.658,23.764 87.561,23.577 87.535 C 23.331 87.499,23.238 87.579,23.238 87.826 M156.667 87.714 C 156.529 87.825,156.400 88.067,156.380 88.250 C 156.360 88.433,156.385 88.489,156.436 88.374 C 156.487 88.259,156.597 88.207,156.681 88.259 C 156.765 88.311,156.833 88.194,156.833 88.000 C 156.833 87.776,156.903 87.690,157.026 87.766 C 157.145 87.840,157.173 87.812,157.099 87.692 C 156.957 87.462,156.978 87.461,156.667 87.714 M385.718 88.118 C 385.717 88.466,385.747 88.581,385.786 88.375 C 385.825 88.169,385.970 88.000,386.109 88.000 C 386.427 88.000,386.309 87.600,385.972 87.535 C 385.785 87.498,385.720 87.646,385.718 88.118 M75.678 88.128 C 75.671 88.257,75.515 88.312,75.279 88.270 C 74.996 88.218,74.897 88.274,74.912 88.475 C 74.923 88.626,74.995 88.762,75.072 88.777 C 75.150 88.793,75.259 88.872,75.315 88.953 C 75.501 89.224,75.951 88.581,75.816 88.238 C 75.747 88.061,75.685 88.012,75.678 88.128 M86.833 88.230 C 86.833 88.356,86.721 88.553,86.583 88.667 C 86.143 89.033,86.394 89.229,87.000 88.993 C 87.046 88.975,87.140 88.969,87.208 88.980 C 87.277 88.991,87.333 88.775,87.333 88.500 C 87.333 88.167,87.250 88.000,87.083 88.000 C 86.946 88.000,86.833 88.103,86.833 88.230 M27.042 88.444 C 26.927 88.490,26.833 88.605,26.833 88.698 C 26.833 88.792,26.944 88.827,27.079 88.775 C 27.213 88.723,27.431 88.788,27.562 88.919 C 27.760 89.117,27.816 89.119,27.887 88.933 C 28.047 88.516,27.560 88.235,27.042 88.444 M30.821 88.375 C 30.716 88.717,30.728 88.982,30.845 88.910 C 30.926 88.859,31.136 88.895,31.311 88.988 C 31.624 89.155,31.957 88.679,31.704 88.426 C 31.614 88.336,30.846 88.291,30.821 88.375 M26.820 89.292 C 26.812 89.468,26.774 89.500,26.723 89.374 C 26.626 89.135,26.333 89.259,26.333 89.538 C 26.333 89.639,26.383 89.673,26.443 89.613 C 26.503 89.552,26.655 89.588,26.780 89.692 C 26.906 89.796,27.056 89.833,27.115 89.774 C 27.174 89.715,27.142 89.667,27.043 89.667 C 26.945 89.667,26.904 89.517,26.952 89.333 C 27.000 89.150,26.993 89.000,26.936 89.000 C 26.880 89.000,26.827 89.131,26.820 89.292 M83.000 89.518 C 83.000 89.619,82.900 89.664,82.778 89.617 C 82.656 89.570,82.556 89.634,82.556 89.759 C 82.556 89.883,82.618 89.947,82.694 89.899 C 82.771 89.852,82.833 89.888,82.833 89.978 C 82.833 90.068,82.702 90.170,82.542 90.203 C 82.304 90.252,82.320 90.283,82.625 90.366 C 82.885 90.437,83.000 90.397,83.000 90.234 C 83.000 90.105,83.075 90.000,83.167 90.000 C 83.258 90.000,83.333 89.850,83.333 89.667 C 83.333 89.483,83.258 89.333,83.167 89.333 C 83.075 89.333,83.000 89.416,83.000 89.518 M76.794 89.801 C 76.656 90.326,76.937 90.650,77.208 90.279 C 77.330 90.113,77.535 90.001,77.663 90.030 C 77.792 90.059,77.926 89.952,77.961 89.792 C 78.036 89.448,77.413 89.372,77.277 89.708 C 77.210 89.871,77.158 89.868,77.036 89.694 C 76.913 89.520,76.861 89.543,76.794 89.801 M21.410 90.011 C 21.349 90.109,21.341 90.230,21.392 90.281 C 21.534 90.423,22.333 90.182,22.333 89.997 C 22.333 89.776,21.548 89.788,21.410 90.011 M25.083 90.484 C 25.083 90.750,25.133 90.937,25.194 90.900 C 25.255 90.862,25.348 90.925,25.401 91.041 C 25.454 91.156,25.456 91.063,25.406 90.833 C 25.318 90.428,25.323 90.425,25.580 90.748 C 25.835 91.066,25.843 91.059,25.804 90.540 C 25.747 89.794,25.083 89.742,25.083 90.484 M361.398 90.727 C 361.195 90.934,361.838 91.669,362.217 91.664 C 362.357 91.662,362.362 91.625,362.234 91.539 C 362.133 91.472,362.064 91.248,362.081 91.042 C 362.097 90.836,362.074 90.704,362.029 90.749 C 361.984 90.794,361.865 90.765,361.765 90.684 C 361.658 90.598,361.508 90.615,361.398 90.727 M20.295 90.867 C 19.848 91.202,20.158 91.521,20.757 91.343 C 21.028 91.262,21.124 91.189,20.971 91.181 C 20.817 91.173,20.667 91.050,20.637 90.908 C 20.592 90.692,20.537 90.685,20.295 90.867 M159.708 91.122 C 159.464 91.644,159.441 91.890,159.648 91.762 C 159.729 91.711,159.785 91.798,159.773 91.954 C 159.760 92.110,159.892 92.266,160.066 92.302 C 160.300 92.350,160.355 92.297,160.280 92.100 C 160.223 91.953,160.243 91.833,160.324 91.833 C 160.447 91.833,160.448 91.479,160.326 91.167 C 160.308 91.121,160.305 91.022,160.318 90.946 C 160.331 90.870,160.271 90.852,160.185 90.905 C 160.099 90.959,160.003 90.929,159.973 90.840 C 159.942 90.751,159.823 90.878,159.708 91.122 M262.610 90.787 C 262.167 90.854,262.157 90.873,262.444 91.091 C 262.612 91.218,262.673 91.325,262.578 91.328 C 262.483 91.331,262.418 91.540,262.432 91.792 C 262.461 92.295,262.775 92.334,263.125 91.876 C 263.379 91.543,263.399 91.000,263.157 91.000 C 263.060 91.000,263.027 90.925,263.083 90.833 C 263.140 90.742,263.163 90.678,263.135 90.692 C 263.107 90.705,262.870 90.748,262.610 90.787 M283.395 90.792 C 269.661 90.837,269.587 90.841,270.007 91.506 C 270.121 91.686,270.162 91.693,270.164 91.532 C 270.166 91.412,270.233 91.355,270.314 91.405 C 270.662 91.620,296.417 91.512,296.421 91.295 C 296.423 91.179,296.484 90.990,296.556 90.875 C 296.628 90.760,296.663 90.685,296.635 90.707 C 296.607 90.730,290.648 90.768,283.395 90.792 M365.407 90.848 C 365.356 90.932,365.370 91.000,365.439 91.000 C 365.507 91.000,365.418 91.119,365.240 91.264 C 364.981 91.475,364.972 91.510,365.198 91.440 C 365.352 91.391,365.515 91.442,365.559 91.551 C 365.610 91.677,365.646 91.658,365.656 91.500 C 365.670 91.278,365.690 91.278,365.833 91.500 C 365.964 91.702,365.995 91.678,365.997 91.375 C 365.999 91.169,366.019 90.951,366.042 90.891 C 366.107 90.719,365.512 90.679,365.407 90.848 M389.708 90.791 C 391.610 90.818,394.723 90.818,396.625 90.791 C 398.527 90.765,396.971 90.743,393.167 90.743 C 389.363 90.743,387.806 90.765,389.708 90.791 M385.957 91.125 C 385.814 91.412,385.936 91.721,386.209 91.761 C 386.370 91.785,386.459 91.734,386.406 91.649 C 386.353 91.564,386.253 91.530,386.183 91.573 C 386.113 91.617,386.056 91.549,386.056 91.424 C 386.056 91.241,386.126 91.234,386.403 91.389 C 386.658 91.532,388.513 91.560,393.417 91.496 L 400.083 91.409 393.500 91.332 L 386.917 91.256 393.500 91.167 L 400.083 91.078 393.052 91.039 C 389.184 91.017,385.992 91.056,385.957 91.125 M27.372 91.370 C 27.129 91.663,27.246 92.097,27.605 92.235 C 27.740 92.287,27.808 92.261,27.756 92.176 C 27.704 92.092,27.737 91.976,27.831 91.918 C 27.924 91.861,28.000 91.739,28.000 91.647 C 28.000 91.555,27.931 91.523,27.846 91.576 C 27.761 91.628,27.667 91.546,27.638 91.393 C 27.589 91.145,27.560 91.142,27.372 91.370 M89.056 91.402 C 89.056 91.540,89.137 91.612,89.236 91.564 C 89.335 91.515,89.267 91.596,89.084 91.744 C 88.669 92.080,88.946 92.306,89.727 92.266 C 90.355 92.234,90.523 91.472,89.915 91.410 C 89.733 91.392,89.465 91.326,89.319 91.264 C 89.146 91.191,89.056 91.238,89.056 91.402 M327.145 91.311 C 327.101 91.439,323.390 91.506,314.464 91.538 C 307.524 91.563,301.974 91.532,302.131 91.470 C 302.343 91.386,302.301 91.354,301.968 91.345 C 301.606 91.336,301.532 91.398,301.583 91.667 C 301.619 91.850,301.564 92.000,301.463 92.000 C 301.361 92.000,301.317 92.039,301.365 92.087 C 301.556 92.279,327.401 92.166,327.577 91.974 C 327.702 91.837,327.684 91.822,327.513 91.920 C 327.343 92.017,327.304 91.984,327.373 91.804 C 327.426 91.666,327.410 91.458,327.338 91.341 C 327.251 91.201,327.186 91.190,327.145 91.311 M246.167 91.501 C 238.696 91.548,232.680 91.604,232.799 91.626 C 232.918 91.649,232.993 91.780,232.966 91.919 C 232.918 92.163,259.396 92.326,259.639 92.083 C 259.683 92.039,259.807 92.076,259.915 92.165 C 260.054 92.281,260.103 92.232,260.086 91.995 C 260.043 91.416,260.013 91.415,246.167 91.501 M23.417 92.000 C 23.360 92.092,23.374 92.172,23.448 92.178 C 23.523 92.185,23.433 92.255,23.250 92.333 C 22.965 92.456,22.959 92.478,23.208 92.488 C 23.525 92.501,23.588 92.858,23.350 93.303 C 23.226 93.535,23.286 93.586,23.697 93.602 C 23.971 93.612,24.132 93.574,24.056 93.518 C 23.979 93.462,23.904 93.160,23.889 92.846 C 23.870 92.451,23.907 92.348,24.011 92.513 C 24.134 92.706,24.162 92.696,24.164 92.458 C 24.166 92.274,24.040 92.167,23.823 92.167 C 23.635 92.167,23.527 92.092,23.583 92.000 C 23.640 91.908,23.649 91.833,23.603 91.833 C 23.557 91.833,23.473 91.908,23.417 92.000 M25.745 92.174 C 25.602 92.406,25.971 92.833,26.314 92.833 C 26.464 92.833,26.678 92.686,26.791 92.506 C 26.966 92.225,26.956 92.194,26.720 92.284 C 26.536 92.355,26.485 92.326,26.566 92.195 C 26.757 91.886,26.313 91.969,26.046 92.292 C 25.818 92.569,25.810 92.569,25.898 92.292 C 25.999 91.969,25.913 91.903,25.745 92.174 M32.276 92.208 C 32.318 92.277,32.233 92.333,32.087 92.333 C 31.867 92.333,31.858 92.374,32.035 92.565 C 32.191 92.733,32.284 92.744,32.372 92.607 C 32.461 92.470,32.496 92.475,32.497 92.625 C 32.502 92.983,32.791 92.852,32.866 92.458 C 32.923 92.161,32.862 92.083,32.568 92.083 C 32.365 92.083,32.233 92.140,32.276 92.208 M80.818 92.292 C 80.695 92.452,80.660 92.528,80.740 92.460 C 80.820 92.392,80.980 92.414,81.095 92.510 C 81.240 92.630,81.337 92.629,81.412 92.508 C 81.471 92.412,81.398 92.333,81.250 92.333 C 81.102 92.333,81.027 92.258,81.083 92.167 C 81.256 91.887,81.055 91.981,80.818 92.292 M86.583 92.344 C 86.308 92.408,86.177 92.469,86.292 92.480 C 86.406 92.491,86.500 92.627,86.500 92.782 C 86.500 93.029,86.532 93.023,86.759 92.740 C 87.010 92.426,87.014 92.427,86.914 92.792 C 86.839 93.065,86.882 93.167,87.072 93.167 C 87.216 93.167,87.339 93.298,87.345 93.458 C 87.355 93.707,87.376 93.701,87.486 93.419 C 87.775 92.679,87.345 92.166,86.583 92.344 M17.060 93.410 C 16.929 93.551,16.964 93.709,17.190 93.987 C 17.438 94.293,17.500 94.314,17.500 94.092 C 17.500 93.939,17.570 93.857,17.655 93.910 C 17.740 93.962,17.857 93.929,17.915 93.836 C 17.974 93.741,17.851 93.662,17.635 93.655 C 17.283 93.644,17.278 93.632,17.574 93.516 C 17.894 93.391,17.894 93.388,17.569 93.303 C 17.388 93.256,17.159 93.304,17.060 93.410 M88.924 93.988 C 88.871 94.074,88.901 94.189,88.990 94.244 C 89.079 94.299,89.104 94.473,89.045 94.630 C 88.953 94.874,88.977 94.885,89.203 94.701 C 89.419 94.525,89.481 94.525,89.540 94.701 C 89.580 94.820,89.620 94.673,89.628 94.375 C 89.644 93.838,89.176 93.581,88.924 93.988 M27.754 95.327 C 27.477 95.774,27.519 96.265,27.850 96.472 C 28.151 96.659,28.204 96.644,28.282 96.345 C 28.331 96.157,28.431 96.041,28.505 96.086 C 28.578 96.132,28.583 95.962,28.516 95.709 C 28.389 95.234,27.948 95.013,27.754 95.327 M84.479 95.250 C 84.348 95.773,84.536 96.002,85.083 95.984 C 85.267 95.978,85.323 95.936,85.208 95.890 C 85.094 95.843,85.000 95.662,85.000 95.486 C 85.000 95.215,84.540 95.006,84.479 95.250 M93.232 95.362 C 93.150 95.496,93.206 95.521,93.413 95.441 C 93.667 95.344,93.681 95.365,93.503 95.580 C 93.305 95.818,93.386 95.910,93.735 95.844 C 93.818 95.829,93.948 95.913,94.024 96.033 C 94.193 96.299,94.224 95.843,94.066 95.430 C 93.947 95.123,93.408 95.078,93.232 95.362 M98.625 95.448 C 98.451 95.494,98.341 95.671,98.353 95.887 C 98.368 96.182,98.387 96.194,98.450 95.949 C 98.511 95.716,98.579 95.691,98.757 95.839 C 99.043 96.076,99.350 95.905,99.225 95.578 C 99.128 95.325,99.111 95.321,98.625 95.448 M92.191 95.982 C 92.030 96.083,92.019 96.159,92.152 96.241 C 92.255 96.304,92.286 96.445,92.221 96.553 C 92.156 96.661,92.241 96.638,92.410 96.500 C 92.579 96.362,92.750 96.275,92.790 96.306 C 92.829 96.336,92.905 96.317,92.958 96.264 C 93.012 96.210,92.964 96.167,92.851 96.167 C 92.739 96.167,92.693 96.092,92.750 96.000 C 92.876 95.797,92.502 95.784,92.191 95.982 M19.433 96.123 C 19.261 96.295,19.325 96.833,19.518 96.833 C 19.619 96.833,19.659 96.946,19.606 97.083 C 19.463 97.458,19.794 97.384,20.002 96.995 C 20.102 96.809,20.254 96.701,20.340 96.754 C 20.426 96.807,20.452 96.734,20.397 96.592 C 20.342 96.450,20.226 96.333,20.139 96.333 C 20.052 96.333,20.017 96.274,20.062 96.201 C 20.157 96.047,19.580 95.975,19.433 96.123 M94.643 96.648 C 94.918 96.823,94.739 96.931,94.114 96.969 C 93.856 96.985,93.537 97.106,93.406 97.237 C 93.134 97.509,93.084 97.737,93.330 97.585 C 93.420 97.530,93.646 97.566,93.832 97.666 C 94.019 97.766,94.161 97.788,94.149 97.715 C 94.085 97.329,94.188 96.994,94.343 97.089 C 94.440 97.149,94.709 97.150,94.941 97.092 C 95.414 96.973,95.210 96.498,94.688 96.503 C 94.472 96.505,94.463 96.534,94.643 96.648 M95.769 96.969 C 95.711 97.063,95.782 97.258,95.927 97.403 C 96.167 97.643,96.164 97.668,95.887 97.678 C 95.615 97.689,95.618 97.704,95.917 97.826 C 96.302 97.983,96.450 97.884,96.528 97.417 C 96.564 97.199,96.502 97.101,96.349 97.134 C 96.220 97.162,96.060 97.097,95.994 96.991 C 95.916 96.863,95.839 96.856,95.769 96.969 M18.791 97.931 C 18.629 98.094,19.220 98.667,19.551 98.667 C 19.977 98.667,19.813 98.263,19.359 98.196 C 19.159 98.167,19.038 98.073,19.091 97.988 C 19.195 97.820,18.950 97.773,18.791 97.931 M23.426 98.515 C 23.477 98.598,23.443 98.667,23.348 98.667 C 23.254 98.667,23.216 98.767,23.262 98.889 C 23.375 99.183,23.833 99.175,23.833 98.879 C 23.833 98.742,23.918 98.695,24.042 98.765 C 24.208 98.858,24.208 98.837,24.043 98.659 C 23.808 98.406,23.282 98.283,23.426 98.515 M101.636 98.462 C 101.482 98.494,101.366 98.660,101.379 98.832 C 101.392 99.003,101.457 99.110,101.523 99.069 C 101.589 99.028,101.691 99.071,101.748 99.164 C 101.806 99.257,101.928 99.333,102.020 99.333 C 102.111 99.333,102.140 99.258,102.083 99.167 C 102.027 99.075,102.047 99.000,102.129 99.000 C 102.211 99.000,102.278 98.891,102.278 98.757 C 102.278 98.624,102.222 98.549,102.153 98.592 C 102.085 98.634,102.003 98.609,101.973 98.537 C 101.942 98.464,101.790 98.431,101.636 98.462 M15.954 99.169 C 15.635 99.541,15.577 99.742,15.835 99.583 C 15.927 99.526,16.047 99.596,16.102 99.738 C 16.157 99.881,16.264 99.959,16.341 99.912 C 16.417 99.865,16.548 99.949,16.632 100.098 C 16.771 100.347,16.792 100.347,16.887 100.102 C 16.943 99.954,16.917 99.833,16.828 99.833 C 16.739 99.833,16.666 99.702,16.664 99.542 C 16.662 99.294,16.638 99.288,16.504 99.499 C 16.379 99.697,16.305 99.705,16.140 99.540 C 15.975 99.375,15.976 99.333,16.143 99.333 C 16.259 99.333,16.311 99.265,16.259 99.181 C 16.207 99.097,16.259 98.990,16.374 98.944 C 16.489 98.898,16.506 98.854,16.412 98.846 C 16.318 98.839,16.112 98.984,15.954 99.169 M22.695 99.245 C 22.798 99.471,22.940 99.621,23.010 99.577 C 23.081 99.534,23.172 99.592,23.213 99.707 C 23.254 99.822,23.337 99.872,23.396 99.817 C 23.525 99.699,22.876 98.833,22.658 98.833 C 22.575 98.833,22.592 99.018,22.695 99.245 M91.500 100.264 C 91.500 100.379,91.458 100.582,91.407 100.716 C 91.334 100.905,91.436 100.945,91.865 100.898 C 92.249 100.855,92.343 100.883,92.175 100.991 C 92.042 101.075,91.854 101.098,91.758 101.040 C 91.662 100.983,91.684 101.060,91.806 101.211 C 91.928 101.362,91.976 101.571,91.911 101.676 C 91.825 101.814,91.879 101.821,92.105 101.700 C 92.276 101.608,92.473 101.525,92.542 101.516 C 92.610 101.507,92.667 101.462,92.667 101.417 C 92.667 101.371,92.667 101.226,92.667 101.095 C 92.667 100.963,92.518 100.809,92.337 100.751 C 92.155 100.693,92.014 100.595,92.023 100.532 C 92.068 100.216,91.976 100.056,91.750 100.056 C 91.612 100.056,91.500 100.149,91.500 100.264 M9.535 100.660 C 9.575 100.934,9.527 101.192,9.429 101.233 C 9.326 101.275,9.343 101.313,9.468 101.320 C 9.588 101.327,9.640 101.408,9.583 101.500 C 9.527 101.592,9.560 101.667,9.657 101.667 C 9.754 101.667,9.833 101.592,9.833 101.500 C 9.833 101.408,9.939 101.333,10.069 101.333 C 10.261 101.333,10.270 101.242,10.117 100.838 C 9.851 100.133,9.439 100.008,9.535 100.660 M98.266 100.488 C 98.318 100.540,98.430 100.593,98.514 100.604 C 98.598 100.616,98.713 100.634,98.770 100.646 C 98.827 100.657,98.771 100.794,98.645 100.949 C 98.520 101.104,98.499 101.181,98.600 101.121 C 98.702 101.060,98.927 101.121,99.100 101.256 C 99.408 101.494,99.408 101.498,99.083 101.401 C 98.819 101.323,98.801 101.338,98.994 101.475 C 99.164 101.595,99.304 101.593,99.453 101.470 C 99.614 101.336,99.667 101.370,99.669 101.605 C 99.671 101.833,99.709 101.859,99.809 101.700 C 99.885 101.580,100.049 101.505,100.174 101.533 C 100.302 101.561,100.405 101.445,100.409 101.267 C 100.414 101.057,100.281 100.929,100.013 100.888 C 99.791 100.854,99.504 100.739,99.375 100.632 C 99.144 100.440,98.080 100.302,98.266 100.488 M104.386 100.958 C 104.329 101.119,104.244 101.318,104.199 101.401 C 104.153 101.484,104.202 101.498,104.308 101.433 C 104.413 101.367,104.500 101.393,104.500 101.490 C 104.500 101.587,104.573 101.667,104.663 101.667 C 104.766 101.667,104.769 101.519,104.671 101.261 C 104.563 100.977,104.576 100.831,104.717 100.774 C 104.863 100.715,104.860 100.689,104.703 100.680 C 104.586 100.673,104.443 100.798,104.386 100.958 M20.272 101.036 C 20.317 101.108,20.249 101.167,20.121 101.167 C 19.770 101.167,19.843 101.596,20.198 101.623 C 20.396 101.638,20.464 101.575,20.388 101.448 C 20.323 101.339,20.399 101.355,20.558 101.485 C 20.777 101.662,20.894 101.672,21.040 101.526 C 21.187 101.380,21.185 101.333,21.033 101.333 C 20.923 101.333,20.833 101.237,20.833 101.119 C 20.833 101.001,20.689 100.905,20.512 100.905 C 20.336 100.905,20.228 100.964,20.272 101.036 M93.257 101.749 C 93.281 102.284,93.396 102.389,93.818 102.255 C 94.151 102.149,94.149 102.134,93.723 101.740 C 93.192 101.248,93.235 101.247,93.257 101.749 M18.500 102.379 C 18.500 102.456,18.432 102.477,18.348 102.426 C 18.264 102.374,18.212 102.442,18.232 102.578 C 18.278 102.894,18.500 103.120,18.500 102.851 C 18.500 102.739,18.571 102.691,18.658 102.745 C 18.745 102.799,18.889 102.707,18.978 102.540 C 19.109 102.297,19.078 102.238,18.820 102.238 C 18.644 102.238,18.500 102.301,18.500 102.379 M7.603 102.754 C 7.280 103.077,7.260 103.280,7.542 103.379 C 7.656 103.419,7.525 103.454,7.250 103.458 C 6.975 103.461,6.659 103.390,6.548 103.300 C 6.400 103.180,6.365 103.230,6.414 103.485 C 6.486 103.862,6.255 103.965,6.099 103.625 C 6.046 103.510,6.048 103.595,6.103 103.813 C 6.170 104.079,6.142 104.171,6.018 104.094 C 5.916 104.032,5.833 104.064,5.833 104.167 C 5.833 104.269,5.771 104.314,5.694 104.267 C 5.618 104.220,5.556 104.287,5.556 104.417 C 5.556 104.546,5.610 104.618,5.677 104.577 C 5.744 104.536,5.845 104.622,5.901 104.770 C 5.974 104.961,5.932 105.010,5.752 104.940 C 5.613 104.887,5.500 104.916,5.500 105.005 C 5.500 105.094,5.613 105.167,5.750 105.167 C 5.888 105.167,5.981 105.223,5.958 105.292 C 5.910 105.436,6.056 105.500,6.429 105.500 C 6.666 105.500,6.666 105.475,6.427 105.237 C 6.196 105.005,6.201 104.667,6.436 104.667 C 6.482 104.667,6.467 104.751,6.403 104.855 C 6.333 104.969,6.378 105.013,6.518 104.966 C 6.646 104.924,6.750 104.745,6.750 104.569 C 6.750 104.101,7.216 103.773,7.363 104.137 C 7.467 104.392,7.478 104.391,7.488 104.125 C 7.495 103.965,7.567 103.833,7.648 103.833 C 7.805 103.833,8.074 102.685,7.947 102.558 C 7.906 102.518,7.752 102.606,7.603 102.754 M17.833 103.516 C 17.833 103.620,17.713 103.656,17.560 103.597 C 17.334 103.511,17.322 103.536,17.491 103.739 C 17.603 103.874,17.650 104.059,17.595 104.148 C 17.536 104.243,17.723 104.304,18.039 104.295 C 18.338 104.286,18.490 104.248,18.375 104.209 C 18.260 104.170,18.167 104.066,18.167 103.976 C 18.167 103.887,18.242 103.860,18.333 103.917 C 18.425 103.973,18.500 103.958,18.500 103.883 C 18.500 103.808,18.350 103.653,18.167 103.539 C 17.935 103.394,17.833 103.387,17.833 103.516 M106.647 103.699 C 106.738 103.937,106.767 104.178,106.712 104.233 C 106.656 104.288,106.699 104.333,106.806 104.333 C 106.912 104.333,107.000 104.254,107.000 104.157 C 107.000 104.060,107.067 104.022,107.149 104.073 C 107.231 104.123,107.344 104.047,107.399 103.902 C 107.553 103.502,107.521 103.413,107.302 103.631 C 107.150 103.784,107.033 103.764,106.794 103.547 C 106.496 103.278,106.489 103.284,106.647 103.699 M97.618 104.220 C 97.576 104.329,97.645 104.515,97.771 104.632 C 97.957 104.807,98.003 104.807,98.017 104.632 C 98.026 104.513,98.093 104.604,98.167 104.833 C 98.261 105.129,98.305 105.162,98.317 104.948 C 98.326 104.783,98.408 104.693,98.500 104.750 C 98.742 104.900,98.705 104.570,98.458 104.380 C 98.085 104.091,97.696 104.017,97.618 104.220 M98.543 105.375 C 98.182 105.833,98.354 106.130,98.868 105.936 C 99.132 105.836,99.270 105.729,99.174 105.697 C 99.078 105.665,99.000 105.533,99.000 105.403 C 99.000 105.111,98.763 105.096,98.543 105.375 M13.273 105.797 C 13.226 105.872,13.256 106.041,13.337 106.173 C 13.419 106.306,13.446 106.575,13.396 106.772 C 13.289 107.200,13.616 107.458,13.890 107.161 C 13.996 107.046,14.008 106.992,13.917 107.043 C 13.825 107.093,13.750 106.954,13.750 106.734 C 13.750 106.514,13.811 106.333,13.885 106.333 C 13.959 106.333,13.973 106.257,13.915 106.164 C 13.857 106.071,13.729 106.045,13.629 106.106 C 13.526 106.171,13.496 106.141,13.560 106.037 C 13.622 105.938,13.601 105.812,13.514 105.759 C 13.427 105.705,13.319 105.722,13.273 105.797 M4.167 106.111 C 4.167 106.289,4.682 106.689,4.987 106.748 C 5.224 106.793,5.287 106.741,5.217 106.558 C 5.138 106.353,5.094 106.347,4.979 106.528 C 4.869 106.701,4.838 106.690,4.836 106.478 C 4.834 106.328,4.683 106.166,4.500 106.118 C 4.317 106.070,4.167 106.067,4.167 106.111 M100.207 106.437 C 100.229 106.706,100.327 106.824,100.495 106.787 C 100.635 106.756,100.731 106.641,100.708 106.532 C 100.638 106.195,100.835 106.313,101.004 106.708 C 101.163 107.083,101.163 107.083,101.123 106.678 C 101.095 106.393,100.948 106.236,100.628 106.151 C 100.219 106.043,100.176 106.071,100.207 106.437 M11.336 107.441 C 11.344 107.901,11.634 108.041,12.019 107.772 C 12.312 107.567,12.341 107.500,12.134 107.500 C 11.984 107.500,11.742 107.454,11.597 107.399 C 11.452 107.343,11.334 107.362,11.336 107.441 M104.333 109.130 C 104.333 109.236,104.221 109.280,104.083 109.227 C 103.778 109.110,103.759 109.282,104.045 109.569 C 104.404 109.928,104.863 109.658,104.571 109.260 C 104.440 109.082,104.333 109.023,104.333 109.130 M8.480 109.625 C 8.469 109.694,8.469 109.806,8.480 109.875 C 8.491 109.944,8.387 110.000,8.250 110.000 C 8.112 110.000,8.000 110.073,8.000 110.161 C 8.000 110.250,8.112 110.280,8.250 110.227 C 8.413 110.164,8.500 110.232,8.500 110.419 C 8.500 110.665,8.539 110.675,8.768 110.485 C 8.945 110.338,8.971 110.240,8.845 110.198 C 8.701 110.150,8.703 110.074,8.850 109.897 C 9.011 109.702,8.992 109.680,8.746 109.775 C 8.539 109.854,8.483 109.829,8.566 109.695 C 8.632 109.588,8.644 109.500,8.593 109.500 C 8.542 109.500,8.491 109.556,8.480 109.625 M6.930 110.590 C 6.871 110.823,6.759 110.974,6.681 110.925 C 6.527 110.830,6.325 111.603,6.467 111.745 C 6.620 111.898,7.000 111.468,7.000 111.140 C 7.000 110.877,7.056 110.851,7.323 110.995 C 7.712 111.203,7.979 110.912,7.676 110.610 C 7.527 110.463,7.495 110.476,7.541 110.667 C 7.574 110.804,7.526 110.748,7.435 110.542 C 7.218 110.052,7.061 110.067,6.930 110.590 M4.427 112.430 C 4.115 112.742,4.226 113.000,4.671 113.000 C 4.895 113.000,4.959 112.920,4.887 112.733 C 4.831 112.586,4.889 112.400,5.017 112.319 C 5.206 112.200,5.197 112.171,4.970 112.169 C 4.816 112.168,4.572 112.285,4.427 112.430 M109.426 113.182 C 109.478 113.265,109.384 113.334,109.218 113.336 C 108.967 113.338,108.958 113.364,109.162 113.494 C 109.324 113.596,109.451 113.581,109.535 113.450 C 109.660 113.253,109.738 113.424,109.673 113.750 C 109.654 113.842,109.697 113.858,109.769 113.787 C 110.022 113.534,109.962 113.196,109.649 113.114 C 109.475 113.068,109.375 113.099,109.426 113.182 M3.323 113.686 C 3.169 113.974,3.190 114.089,3.438 114.311 C 3.605 114.461,3.688 114.515,3.622 114.432 C 3.557 114.349,3.591 114.174,3.699 114.044 C 3.851 113.862,3.846 113.778,3.679 113.674 C 3.503 113.566,3.505 113.523,3.689 113.450 C 3.840 113.390,3.849 113.355,3.714 113.346 C 3.603 113.339,3.427 113.492,3.323 113.686 M110.417 113.667 C 110.246 113.856,110.198 114.000,110.308 114.000 C 110.413 114.000,110.500 114.112,110.500 114.250 C 110.500 114.595,110.656 114.563,111.022 114.141 C 111.403 113.702,111.403 113.698,111.042 113.727 C 110.881 113.740,110.769 113.656,110.792 113.542 C 110.850 113.252,110.767 113.280,110.417 113.667 M0.000 115.103 C 0.000 115.448,0.065 115.522,0.315 115.457 C 0.488 115.411,0.732 115.439,0.857 115.518 C 1.037 115.632,1.027 115.662,0.809 115.664 C 0.659 115.666,0.488 115.790,0.431 115.940 C 0.345 116.162,0.371 116.176,0.565 116.015 C 0.745 115.866,0.833 115.865,0.923 116.010 C 1.010 116.150,1.080 116.141,1.185 115.976 C 1.452 115.555,1.350 115.223,0.958 115.237 C 0.730 115.245,0.601 115.163,0.629 115.029 C 0.654 114.908,0.598 114.856,0.504 114.914 C 0.410 114.972,0.333 114.940,0.333 114.843 C 0.333 114.746,0.258 114.667,0.167 114.667 C 0.075 114.667,0.000 114.863,0.000 115.103 M115.007 116.146 C 114.731 116.329,114.642 116.344,114.734 116.194 C 114.835 116.030,114.772 115.986,114.490 116.028 C 114.281 116.058,114.079 116.196,114.042 116.333 C 113.982 116.556,113.994 116.556,114.151 116.333 C 114.298 116.126,114.329 116.148,114.331 116.458 C 114.332 116.665,114.413 116.833,114.510 116.833 C 114.607 116.833,114.639 116.740,114.581 116.625 C 114.523 116.510,114.583 116.548,114.714 116.708 C 114.973 117.024,115.256 117.113,115.076 116.822 C 115.012 116.717,115.084 116.666,115.253 116.697 C 115.424 116.729,115.594 116.605,115.676 116.389 C 115.857 115.910,115.539 115.795,115.007 116.146 " stroke="none" fill="#fcfcfc" fill-rule="evenodd"></svg>
